thaisansnew-regular.ufo
<glyph name="ampersand" format="1">
  <advance width="554"/>
  <unicode hex="0026"/>
  <outline>
    <contour>
      <point x="201" y="40" type="curve" smooth="yes" name="hr00"/>
      <point x="138" y="40"/>
      <point x="97" y="62"/>
      <point x="97" y="127" type="curve" smooth="yes"/>
      <point x="97" y="199"/>
      <point x="129" y="222"/>
      <point x="192" y="248" type="curve"/>
      <point x="273" y="218"/>
      <point x="307" y="154"/>
      <point x="346" y="99" type="curve"/>
      <point x="308" y="60"/>
      <point x="260" y="40"/>
    </contour>
    <contour>
      <point x="287" y="398" type="curve" smooth="yes"/>
      <point x="287" y="355"/>
      <point x="261" y="325"/>
      <point x="201" y="302" type="curve"/>
      <point x="165" y="322"/>
      <point x="147" y="353"/>
      <point x="147" y="388" type="curve" smooth="yes"/>
      <point x="147" y="420"/>
      <point x="173" y="448"/>
      <point x="222" y="448" type="curve" smooth="yes"/>
      <point x="246" y="448"/>
      <point x="287" y="433"/>
    </contour>
    <contour>
      <point x="517" y="50" type="line"/>
      <point x="466" y="50"/>
      <point x="440" y="71"/>
      <point x="415" y="102" type="curve"/>
      <point x="468" y="177"/>
      <point x="503" y="271"/>
      <point x="507" y="350" type="curve"/>
      <point x="447" y="350" type="line"/>
      <point x="447" y="333" type="line" smooth="yes"/>
      <point x="447" y="283"/>
      <point x="426" y="206"/>
      <point x="383" y="145" type="curve"/>
      <point x="352" y="190"/>
      <point x="318" y="239"/>
      <point x="246" y="278" type="curve"/>
      <point x="311" y="305"/>
      <point x="347" y="337"/>
      <point x="347" y="398" type="curve" smooth="yes"/>
      <point x="347" y="460"/>
      <point x="287" y="500"/>
      <point x="222" y="500" type="curve" smooth="yes"/>
      <point x="146" y="500"/>
      <point x="87" y="460"/>
      <point x="87" y="388" type="curve" smooth="yes"/>
      <point x="87" y="337"/>
      <point x="120" y="302"/>
      <point x="149" y="283" type="curve"/>
      <point x="73" y="248"/>
      <point x="37" y="200"/>
      <point x="37" y="127" type="curve" smooth="yes"/>
      <point x="37" y="32"/>
      <point x="97" y="-8"/>
      <point x="201" y="-8" type="curve" smooth="yes"/>
      <point x="273" y="-8"/>
      <point x="332" y="15"/>
      <point x="379" y="60" type="curve"/>
      <point x="410" y="25"/>
      <point x="449" y="-0"/>
      <point x="517" y="-0" type="curve"/>
    </contour>
  </outline>
</glyph>
<glyph name="quotesingle" format="1">
  <advance width="134"/>
  <unicode hex="0027"/>
  <outline>
    <contour>
      <point x="37" y="360" type="line" name="hr00"/>
      <point x="97" y="360" type="line"/>
      <point x="97" y="520" type="line"/>
      <point x="37" y="520" type="line"/>
    </contour>
  </outline>
</glyph>
<glyph name="parenright" format="1">
  <advance width="204"/>
  <unicode hex="0029"/>
  <outline>
    <contour>
      <point x="7" y="-139" type="curve" name="hr00"/>
      <point x="62" y="-139" type="line"/>
      <point x="141" y="-51"/>
      <point x="182" y="58"/>
      <point x="182" y="187" type="curve" smooth="yes"/>
      <point x="182" y="319"/>
      <point x="141" y="431"/>
      <point x="62" y="524" type="curve"/>
      <point x="7" y="524" type="line"/>
      <point x="86" y="428"/>
      <point x="126" y="315"/>
      <point x="126" y="187" type="curve" smooth="yes"/>
      <point x="126" y="60"/>
      <point x="86" y="-46"/>
    </contour>
  </outline>
</glyph>
<glyph name="comma" format="1">
  <advance width="134"/>
  <unicode hex="002C"/>
  <outline>
    <contour>
      <point x="37" y="60" type="line" name="hr00"/>
      <point x="37" y="-0" type="line" smooth="yes"/>
      <point x="37" y="-37"/>
      <point x="4" y="-81"/>
      <point x="-21" y="-108" type="curve"/>
      <point x="27" y="-108" type="line"/>
      <point x="59" y="-86"/>
      <point x="97" y="-40"/>
      <point x="97" y="-0" type="curve" smooth="yes"/>
      <point x="97" y="60" type="line"/>
    </contour>
  </outline>
</glyph>
<glyph name="slash" format="1">
  <advance width="231"/>
  <unicode hex="002F"/>
  <outline>
    <contour>
      <point x="224" y="602" type="line" name="hr00"/>
      <point x="168" y="602" type="line"/>
      <point x="7" y="-0" type="line"/>
      <point x="63" y="-0" type="line"/>
    </contour>
  </outline>
</glyph>
<glyph name="one" format="1">
  <advance width="229"/>
  <unicode hex="0031"/>
  <outline>
    <contour>
      <point x="192" y="490" type="line" name="hr00"/>
      <point x="133" y="490" type="line"/>
      <point x="105" y="459"/>
      <point x="61" y="425"/>
      <point x="22" y="410" type="curve"/>
      <point x="22" y="360" type="line"/>
      <point x="65" y="369"/>
      <point x="109" y="395"/>
      <point x="132" y="410" type="curve"/>
      <point x="132" y="-0" type="line"/>
      <point x="192" y="-0" type="line"/>
    </contour>
  </outline>
</glyph>
<glyph name="two" format="1">
  <advance width="339"/>
  <unicode hex="0032"/>
  <outline>
    <contour>
      <point x="252" y="364" type="curve" smooth="yes" name="hr00"/>
      <point x="252" y="246"/>
      <point x="22" y="163"/>
      <point x="22" y="46" type="curve" smooth="yes"/>
      <point x="22" y="-0" type="line"/>
      <point x="332" y="-0" type="line"/>
      <point x="332" y="50" type="line"/>
      <point x="83" y="50" type="line"/>
      <point x="95" y="146"/>
      <point x="312" y="224"/>
      <point x="312" y="370" type="curve" smooth="yes"/>
      <point x="312" y="454"/>
      <point x="251" y="500"/>
      <point x="167" y="500" type="curve" smooth="yes"/>
      <point x="114" y="500"/>
      <point x="70" y="486"/>
      <point x="42" y="457" type="curve"/>
      <point x="42" y="407" type="line"/>
      <point x="73" y="438"/>
      <point x="124" y="450"/>
      <point x="167" y="450" type="curve" smooth="yes"/>
      <point x="216" y="450"/>
      <point x="252" y="427"/>
    </contour>
  </outline>
</glyph>
<glyph name="seven" format="1">
  <advance width="334"/>
  <unicode hex="0037"/>
  <outline>
    <contour>
      <point x="7" y="490" type="line" name="hr00"/>
      <point x="7" y="440" type="line"/>
      <point x="257" y="440" type="line"/>
      <point x="92" y="0" type="line"/>
      <point x="152" y="0" type="line"/>
      <point x="327" y="460" type="line"/>
      <point x="327" y="490" type="line"/>
    </contour>
  </outline>
</glyph>
<glyph name="eight" format="1">
  <advance width="354"/>
  <unicode hex="0038"/>
  <outline>
    <contour>
      <point x="102" y="368" type="curve" smooth="yes" name="hr00"/>
      <point x="102" y="415"/>
      <point x="126" y="450"/>
      <point x="177" y="450" type="curve" smooth="yes"/>
      <point x="220" y="450"/>
      <point x="253" y="415"/>
      <point x="253" y="368" type="curve" smooth="yes"/>
      <point x="253" y="325"/>
      <point x="220" y="290"/>
      <point x="177" y="290" type="curve" smooth="yes"/>
      <point x="128" y="290"/>
      <point x="102" y="325"/>
    </contour>
    <contour>
      <point x="177" y="240" type="curve" smooth="yes"/>
      <point x="237" y="240"/>
      <point x="272" y="191"/>
      <point x="272" y="140" type="curve" smooth="yes"/>
      <point x="272" y="80"/>
      <point x="237" y="40"/>
      <point x="177" y="40" type="curve" smooth="yes"/>
      <point x="116" y="40"/>
      <point x="82" y="80"/>
      <point x="82" y="140" type="curve" smooth="yes"/>
      <point x="82" y="200"/>
      <point x="121" y="240"/>
    </contour>
    <contour>
      <point x="42" y="374" type="curve" smooth="yes"/>
      <point x="42" y="327"/>
      <point x="67" y="288"/>
      <point x="108" y="265" type="curve"/>
      <point x="51" y="237"/>
      <point x="22" y="187"/>
      <point x="22" y="130" type="curve" smooth="yes"/>
      <point x="22" y="39"/>
      <point x="81" y="-8"/>
      <point x="177" y="-8" type="curve" smooth="yes"/>
      <point x="268" y="-8"/>
      <point x="332" y="39"/>
      <point x="332" y="130" type="curve" smooth="yes"/>
      <point x="332" y="185"/>
      <point x="304" y="238"/>
      <point x="247" y="265" type="curve"/>
      <point x="288" y="288"/>
      <point x="312" y="327"/>
      <point x="312" y="374" type="curve" smooth="yes"/>
      <point x="312" y="441"/>
      <point x="252" y="500"/>
      <point x="177" y="500" type="curve" smooth="yes"/>
      <point x="97" y="500"/>
      <point x="42" y="446"/>
    </contour>
  </outline>
</glyph>
<glyph name="nine" format="1">
  <advance width="363"/>
  <unicode hex="0039"/>
  <outline>
    <contour>
      <point x="277" y="328" type="curve" smooth="yes" name="hr00"/>
      <point x="277" y="294"/>
      <point x="248" y="231"/>
      <point x="181" y="231" type="curve" smooth="yes"/>
      <point x="118" y="231"/>
      <point x="81" y="267"/>
      <point x="81" y="338" type="curve" smooth="yes"/>
      <point x="81" y="399"/>
      <point x="128" y="450"/>
      <point x="181" y="450" type="curve" smooth="yes"/>
      <point x="242" y="450"/>
      <point x="277" y="404"/>
    </contour>
    <contour>
      <point x="341" y="274" type="curve" smooth="yes"/>
      <point x="341" y="415"/>
      <point x="277" y="500"/>
      <point x="181" y="500" type="curve" smooth="yes"/>
      <point x="89" y="500"/>
      <point x="22" y="431"/>
      <point x="22" y="338" type="curve" smooth="yes"/>
      <point x="22" y="246"/>
      <point x="91" y="182"/>
      <point x="174" y="182" type="curve" smooth="yes"/>
      <point x="207" y="182"/>
      <point x="257" y="191"/>
      <point x="281" y="232" type="curve"/>
      <point x="281" y="111"/>
      <point x="227" y="40"/>
      <point x="138" y="40" type="curve" smooth="yes"/>
      <point x="113" y="40"/>
      <point x="92" y="42"/>
      <point x="75" y="45" type="curve" smooth="yes"/>
      <point x="66" y="46"/>
      <point x="58" y="48"/>
      <point x="51" y="50" type="curve"/>
      <point x="51" y="-0" type="line"/>
      <point x="75" y="-8"/>
      <point x="107" y="-8"/>
      <point x="138" y="-8" type="curve" smooth="yes"/>
      <point x="263" y="-8"/>
      <point x="341" y="87"/>
    </contour>
  </outline>
</glyph>
<glyph name="colon" format="1">
  <advance width="134"/>
  <unicode hex="003A"/>
  <outline>
    <contour>
      <point x="97" y="-0" type="line" name="hr00"/>
      <point x="97" y="60" type="line"/>
      <point x="37" y="60" type="line"/>
      <point x="37" y="-0" type="line"/>
    </contour>
    <contour>
      <point x="97" y="290" type="line"/>
      <point x="97" y="350" type="line"/>
      <point x="37" y="350" type="line"/>
      <point x="37" y="290" type="line"/>
    </contour>
  </outline>
</glyph>
<glyph name="semicolon" format="1">
  <advance width="134"/>
  <unicode hex="003B"/>
  <outline>
    <contour>
      <point x="37" y="60" type="line" name="hr00"/>
      <point x="37" y="-0" type="line" smooth="yes"/>
      <point x="37" y="-37"/>
      <point x="4" y="-81"/>
      <point x="-21" y="-108" type="curve"/>
      <point x="27" y="-108" type="line"/>
      <point x="59" y="-86"/>
      <point x="97" y="-40"/>
      <point x="97" y="-0" type="curve" smooth="yes"/>
      <point x="97" y="60" type="line"/>
    </contour>
    <contour>
      <point x="97" y="290" type="line"/>
      <point x="97" y="350" type="line"/>
      <point x="37" y="350" type="line"/>
      <point x="37" y="290" type="line"/>
    </contour>
  </outline>
</glyph>
<glyph name="question" format="1">
  <advance width="314"/>
  <unicode hex="003F"/>
  <outline>
    <contour>
      <point x="157" y="120" type="line" name="hr00"/>
      <point x="157" y="216" type="line" smooth="yes"/>
      <point x="157" y="273"/>
      <point x="277" y="286"/>
      <point x="277" y="390" type="curve" smooth="yes"/>
      <point x="277" y="463"/>
      <point x="213" y="500"/>
      <point x="148" y="500" type="curve" smooth="yes"/>
      <point x="110" y="500"/>
      <point x="63" y="491"/>
      <point x="37" y="460" type="curve"/>
      <point x="37" y="410" type="line"/>
      <point x="68" y="437"/>
      <point x="107" y="450"/>
      <point x="148" y="450" type="curve" smooth="yes"/>
      <point x="185" y="450"/>
      <point x="217" y="431"/>
      <point x="217" y="384" type="curve" smooth="yes"/>
      <point x="217" y="307"/>
      <point x="97" y="293"/>
      <point x="97" y="216" type="curve" smooth="yes"/>
      <point x="97" y="120" type="line"/>
    </contour>
    <contour>
      <point x="157" y="-0" type="line"/>
      <point x="157" y="60" type="line"/>
      <point x="97" y="60" type="line"/>
      <point x="97" y="-0" type="line"/>
    </contour>
  </outline>
</glyph>
<glyph name="at" format="1">
  <advance width="654"/>
  <unicode hex="0040"/>
  <outline>
    <contour>
      <point x="326" y="290" type="curve" smooth="yes" name="hr00"/>
      <point x="357" y="290"/>
      <point x="376" y="273"/>
      <point x="376" y="238" type="curve" smooth="yes"/>
      <point x="376" y="138"/>
      <point x="344" y="100"/>
      <point x="288" y="100" type="curve" smooth="yes"/>
      <point x="259" y="100"/>
      <point x="227" y="123"/>
      <point x="227" y="184" type="curve" smooth="yes"/>
      <point x="227" y="255"/>
      <point x="273" y="290"/>
    </contour>
    <contour>
      <point x="389" y="127" type="curve"/>
      <point x="393" y="72"/>
      <point x="413" y="50"/>
      <point x="468" y="50" type="curve" smooth="yes"/>
      <point x="540" y="50"/>
      <point x="617" y="119"/>
      <point x="617" y="226" type="curve" smooth="yes"/>
      <point x="617" y="365"/>
      <point x="492" y="470"/>
      <point x="337" y="470" type="curve" smooth="yes"/>
      <point x="177" y="470"/>
      <point x="37" y="344"/>
      <point x="37" y="187" type="curve" smooth="yes"/>
      <point x="37" y="32"/>
      <point x="167" y="-78"/>
      <point x="326" y="-78" type="curve" smooth="yes"/>
      <point x="377" y="-78"/>
      <point x="425" y="-66"/>
      <point x="470" y="-51" type="curve"/>
      <point x="470" y="-0" type="line"/>
      <point x="430" y="-15"/>
      <point x="378" y="-28"/>
      <point x="326" y="-28" type="curve" smooth="yes"/>
      <point x="179" y="-28"/>
      <point x="97" y="80"/>
      <point x="97" y="187" type="curve" smooth="yes"/>
      <point x="97" y="287"/>
      <point x="192" y="420"/>
      <point x="337" y="420" type="curve" smooth="yes"/>
      <point x="480" y="420"/>
      <point x="557" y="303"/>
      <point x="557" y="226" type="curve" smooth="yes"/>
      <point x="557" y="178"/>
      <point x="527" y="100"/>
      <point x="468" y="100" type="curve" smooth="yes"/>
      <point x="451" y="100"/>
      <point x="443" y="119"/>
      <point x="439" y="138" type="curve" smooth="yes"/>
      <point x="436" y="149"/>
      <point x="435" y="162"/>
      <point x="435" y="176" type="curve"/>
      <point x="463" y="340" type="line"/>
      <point x="407" y="340" type="line"/>
      <point x="399" y="300" type="line"/>
      <point x="388" y="323"/>
      <point x="363" y="340"/>
      <point x="326" y="340" type="curve" smooth="yes"/>
      <point x="245" y="340"/>
      <point x="167" y="272"/>
      <point x="167" y="184" type="curve" smooth="yes"/>
      <point x="167" y="90"/>
      <point x="228" y="50"/>
      <point x="288" y="50" type="curve" smooth="yes"/>
      <point x="337" y="50"/>
      <point x="365" y="72"/>
    </contour>
  </outline>
</glyph>
<glyph name="A" format="1">
  <advance width="434"/>
  <unicode hex="0041"/>
  <outline>
    <contour>
      <point x="130" y="180" type="line" name="hr00"/>
      <point x="217" y="425" type="line"/>
      <point x="302" y="180" type="line"/>
    </contour>
    <contour>
      <point x="64" y="-0" type="line"/>
      <point x="113" y="130" type="line"/>
      <point x="319" y="130" type="line"/>
      <point x="367" y="-0" type="line"/>
      <point x="427" y="-0" type="line"/>
      <point x="247" y="490" type="line"/>
      <point x="187" y="490" type="line"/>
      <point x="7" y="-0" type="line"/>
    </contour>
  </outline>
</glyph>
<glyph name="B" format="1">
  <advance width="384"/>
  <unicode hex="0042"/>
  <outline>
    <contour>
      <point x="162" y="235" type="line" name="hr00"/>
      <point x="242" y="235"/>
      <point x="287" y="199"/>
      <point x="287" y="140" type="curve" smooth="yes"/>
      <point x="287" y="89"/>
      <point x="240" y="50"/>
      <point x="173" y="50" type="curve" smooth="yes"/>
      <point x="97" y="50" type="line"/>
      <point x="97" y="235" type="line"/>
    </contour>
    <contour>
      <point x="162" y="440" type="line"/>
      <point x="226" y="440"/>
      <point x="257" y="412"/>
      <point x="257" y="365" type="curve" smooth="yes"/>
      <point x="257" y="312"/>
      <point x="217" y="285"/>
      <point x="156" y="285" type="curve" smooth="yes"/>
      <point x="97" y="285" type="line"/>
      <point x="97" y="440" type="line"/>
    </contour>
    <contour>
      <point x="179" y="-0" type="line"/>
      <point x="276" y="-0"/>
      <point x="347" y="58"/>
      <point x="347" y="140" type="curve" smooth="yes"/>
      <point x="347" y="207"/>
      <point x="295" y="249"/>
      <point x="231" y="260" type="curve"/>
      <point x="284" y="275"/>
      <point x="317" y="323"/>
      <point x="317" y="375" type="curve" smooth="yes"/>
      <point x="317" y="442"/>
      <point x="265" y="490"/>
      <point x="177" y="490" type="curve" smooth="yes"/>
      <point x="37" y="490" type="line"/>
      <point x="37" y="-0" type="line"/>
    </contour>
  </outline>
</glyph>
<glyph name="D" format="1">
  <advance width="459"/>
  <unicode hex="0044"/>
  <outline>
    <contour>
      <point x="97" y="440" type="line" name="hr00"/>
      <point x="171" y="440" type="line" smooth="yes"/>
      <point x="304" y="440"/>
      <point x="377" y="378"/>
      <point x="377" y="250" type="curve" smooth="yes"/>
      <point x="377" y="125"/>
      <point x="296" y="50"/>
      <point x="168" y="50" type="curve" smooth="yes"/>
      <point x="97" y="50" type="line"/>
    </contour>
    <contour>
      <point x="37" y="-0" type="line"/>
      <point x="168" y="-0" type="line" smooth="yes"/>
      <point x="329" y="-0"/>
      <point x="437" y="101"/>
      <point x="437" y="250" type="curve" smooth="yes"/>
      <point x="437" y="411"/>
      <point x="346" y="490"/>
      <point x="174" y="490" type="curve" smooth="yes"/>
      <point x="37" y="490" type="line"/>
    </contour>
  </outline>
</glyph>
<glyph name="E" format="1">
  <advance width="334"/>
  <unicode hex="0045"/>
  <outline>
    <contour>
      <point x="97" y="50" type="line" name="hr00"/>
      <point x="97" y="220" type="line"/>
      <point x="277" y="220" type="line"/>
      <point x="277" y="270" type="line"/>
      <point x="97" y="270" type="line"/>
      <point x="97" y="440" type="line"/>
      <point x="297" y="440" type="line"/>
      <point x="297" y="490" type="line"/>
      <point x="37" y="490" type="line"/>
      <point x="37" y="-0" type="line"/>
      <point x="297" y="-0" type="line"/>
      <point x="297" y="50" type="line"/>
    </contour>
  </outline>
</glyph>
<glyph name="H" format="1">
  <advance width="444"/>
  <unicode hex="0048"/>
  <outline>
    <contour>
      <point x="347" y="490" type="line" name="hr00"/>
      <point x="347" y="280" type="line"/>
      <point x="97" y="280" type="line"/>
      <point x="97" y="490" type="line"/>
      <point x="37" y="490" type="line"/>
      <point x="37" y="0" type="line"/>
      <point x="97" y="0" type="line"/>
      <point x="97" y="230" type="line"/>
      <point x="347" y="230" type="line"/>
      <point x="347" y="0" type="line"/>
      <point x="407" y="0" type="line"/>
      <point x="407" y="490" type="line"/>
    </contour>
  </outline>
</glyph>
<glyph name="J" format="1">
  <advance width="254"/>
  <unicode hex="004A"/>
  <outline>
    <contour>
      <point x="157" y="490" type="line" name="hr00"/>
      <point x="157" y="172" type="line" smooth="yes"/>
      <point x="157" y="84"/>
      <point x="130" y="40"/>
      <point x="77" y="40" type="curve" smooth="yes"/>
      <point x="62" y="40"/>
      <point x="50" y="41"/>
      <point x="41" y="44" type="curve" smooth="yes"/>
      <point x="36" y="45"/>
      <point x="31" y="47"/>
      <point x="27" y="48" type="curve"/>
      <point x="7" y="3" type="line"/>
      <point x="27" y="-7"/>
      <point x="55" y="-8"/>
      <point x="77" y="-8" type="curve" smooth="yes"/>
      <point x="162" y="-8"/>
      <point x="217" y="55"/>
      <point x="217" y="172" type="curve" smooth="yes"/>
      <point x="217" y="490" type="line"/>
    </contour>
  </outline>
</glyph>
<glyph name="K" format="1">
  <advance width="389"/>
  <unicode hex="004B"/>
  <outline>
    <contour>
      <point x="232" y="323" type="line" name="hr00"/>
      <point x="366" y="490" type="line"/>
      <point x="296" y="490" type="line"/>
      <point x="97" y="242" type="line"/>
      <point x="97" y="490" type="line"/>
      <point x="37" y="490" type="line"/>
      <point x="37" y="-0" type="line"/>
      <point x="97" y="-0" type="line"/>
      <point x="97" y="153" type="line"/>
      <point x="193" y="274" type="line"/>
      <point x="320" y="-0" type="line"/>
      <point x="382" y="-0" type="line"/>
    </contour>
  </outline>
</glyph>
<glyph name="L" format="1">
  <advance width="304"/>
  <unicode hex="004C"/>
  <outline>
    <contour>
      <point x="97" y="50" type="line" name="hr00"/>
      <point x="97" y="490" type="line"/>
      <point x="37" y="490" type="line"/>
      <point x="37" y="-0" type="line"/>
      <point x="297" y="-0" type="line"/>
      <point x="297" y="50" type="line"/>
    </contour>
  </outline>
</glyph>
<glyph name="M" format="1">
  <advance width="584"/>
  <unicode hex="004D"/>
  <outline>
    <contour>
      <point x="467" y="490" type="line" name="hr00"/>
      <point x="287" y="90" type="line"/>
      <point x="117" y="490" type="line"/>
      <point x="37" y="490" type="line"/>
      <point x="37" y="-0" type="line"/>
      <point x="97" y="-0" type="line"/>
      <point x="97" y="403" type="line"/>
      <point x="272" y="-0" type="line"/>
      <point x="302" y="-0" type="line"/>
      <point x="487" y="405" type="line"/>
      <point x="487" y="-0" type="line"/>
      <point x="547" y="-0" type="line"/>
      <point x="547" y="490" type="line"/>
    </contour>
  </outline>
</glyph>
<glyph name="P" format="1">
  <advance width="359"/>
  <unicode hex="0050"/>
  <outline>
    <contour>
      <point x="173" y="440" type="line" name="hr00"/>
      <point x="252" y="440"/>
      <point x="277" y="404"/>
      <point x="277" y="339" type="curve" smooth="yes"/>
      <point x="277" y="275"/>
      <point x="238" y="230"/>
      <point x="159" y="230" type="curve" smooth="yes"/>
      <point x="97" y="230" type="line"/>
      <point x="97" y="440" type="line"/>
    </contour>
    <contour>
      <point x="159" y="180" type="line"/>
      <point x="271" y="180"/>
      <point x="337" y="244"/>
      <point x="337" y="340" type="curve" smooth="yes"/>
      <point x="337" y="437"/>
      <point x="277" y="490"/>
      <point x="173" y="490" type="curve" smooth="yes"/>
      <point x="37" y="490" type="line"/>
      <point x="37" y="-0" type="line"/>
      <point x="97" y="-0" type="line"/>
      <point x="97" y="180" type="line"/>
    </contour>
  </outline>
</glyph>
<glyph name="Q" format="1">
  <advance width="514"/>
  <unicode hex="0051"/>
  <outline>
    <contour>
      <point x="251" y="40" type="curve" smooth="yes" name="hr00"/>
      <point x="147" y="40"/>
      <point x="82" y="117"/>
      <point x="82" y="238" type="curve" smooth="yes"/>
      <point x="82" y="370"/>
      <point x="148" y="450"/>
      <point x="261" y="450" type="curve" smooth="yes"/>
      <point x="362" y="450"/>
      <point x="432" y="370"/>
      <point x="432" y="249" type="curve" smooth="yes"/>
      <point x="432" y="116"/>
      <point x="363" y="40"/>
    </contour>
    <contour>
      <point x="251" y="-8" type="curve" smooth="yes"/>
      <point x="274" y="-8"/>
      <point x="296" y="-5"/>
      <point x="319" y="-0" type="curve"/>
      <point x="344" y="-8"/>
      <point x="393" y="-31"/>
      <point x="393" y="-68" type="curve"/>
      <point x="449" y="-68" type="line"/>
      <point x="449" y="-16"/>
      <point x="410" y="6"/>
      <point x="377" y="20" type="curve"/>
      <point x="449" y="60"/>
      <point x="492" y="138"/>
      <point x="492" y="249" type="curve" smooth="yes"/>
      <point x="492" y="400"/>
      <point x="400" y="500"/>
      <point x="261" y="500" type="curve" smooth="yes"/>
      <point x="112" y="500"/>
      <point x="22" y="401"/>
      <point x="22" y="238" type="curve" smooth="yes"/>
      <point x="22" y="86"/>
      <point x="111" y="-8"/>
    </contour>
  </outline>
</glyph>
<glyph name="R" format="1">
  <advance width="399"/>
  <unicode hex="0052"/>
  <outline>
    <contour>
      <point x="175" y="440" type="line" name="hr00"/>
      <point x="239" y="440"/>
      <point x="277" y="407"/>
      <point x="277" y="356" type="curve" smooth="yes"/>
      <point x="277" y="292"/>
      <point x="234" y="260"/>
      <point x="175" y="260" type="curve" smooth="yes"/>
      <point x="97" y="260" type="line"/>
      <point x="97" y="440" type="line"/>
    </contour>
    <contour>
      <point x="299" y="146" type="line"/>
      <point x="276" y="182"/>
      <point x="255" y="224"/>
      <point x="224" y="235" type="curve"/>
      <point x="289" y="250"/>
      <point x="337" y="288"/>
      <point x="337" y="356" type="curve" smooth="yes"/>
      <point x="337" y="444"/>
      <point x="268" y="490"/>
      <point x="187" y="490" type="curve" smooth="yes"/>
      <point x="37" y="490" type="line"/>
      <point x="37" y="-0" type="line"/>
      <point x="97" y="-0" type="line"/>
      <point x="97" y="210" type="line"/>
      <point x="144" y="210" type="line" smooth="yes"/>
      <point x="187" y="210"/>
      <point x="210" y="183"/>
      <point x="239" y="136" type="curve" smooth="yes"/>
      <point x="324" y="-0" type="line"/>
      <point x="392" y="-0" type="line"/>
    </contour>
  </outline>
</glyph>
<glyph name="T" format="1">
  <advance width="349"/>
  <unicode hex="0054"/>
  <outline>
    <contour>
      <point x="7" y="490" type="line" name="hr00"/>
      <point x="7" y="440" type="line"/>
      <point x="147" y="440" type="line"/>
      <point x="147" y="-0" type="line"/>
      <point x="207" y="-0" type="line"/>
      <point x="207" y="440" type="line"/>
      <point x="342" y="440" type="line"/>
      <point x="342" y="490" type="line"/>
    </contour>
  </outline>
</glyph>
<glyph name="V" format="1">
  <advance width="434"/>
  <unicode hex="0056"/>
  <outline>
    <contour>
      <point x="67" y="490" type="line" name="hr00"/>
      <point x="7" y="490" type="line"/>
      <point x="187" y="-0" type="line"/>
      <point x="247" y="-0" type="line"/>
      <point x="427" y="490" type="line"/>
      <point x="367" y="490" type="line"/>
      <point x="217" y="70" type="line"/>
    </contour>
  </outline>
</glyph>
<glyph name="X" format="1">
  <advance width="404"/>
  <unicode hex="0058"/>
  <outline>
    <contour>
      <point x="397" y="490" type="line" name="hr00"/>
      <point x="327" y="490" type="line"/>
      <point x="202" y="295" type="line"/>
      <point x="87" y="490" type="line"/>
      <point x="17" y="490" type="line"/>
      <point x="167" y="245" type="line"/>
      <point x="7" y="-0" type="line"/>
      <point x="77" y="-0" type="line"/>
      <point x="202" y="195" type="line"/>
      <point x="327" y="-0" type="line"/>
      <point x="397" y="-0" type="line"/>
      <point x="237" y="245" type="line"/>
    </contour>
  </outline>
</glyph>
<glyph name="Y" format="1">
  <advance width="384"/>
  <unicode hex="0059"/>
  <outline>
    <contour>
      <point x="187" y="239" type="line" name="hr00"/>
      <point x="67" y="490" type="line"/>
      <point x="7" y="490" type="line"/>
      <point x="157" y="176" type="line"/>
      <point x="157" y="-0" type="line"/>
      <point x="217" y="-0" type="line"/>
      <point x="217" y="179" type="line"/>
      <point x="377" y="490" type="line"/>
      <point x="317" y="490" type="line"/>
    </contour>
  </outline>
</glyph>
<glyph name="Z" format="1">
  <advance width="384"/>
  <unicode hex="005A"/>
  <outline>
    <contour>
      <point x="27" y="490" type="line" name="hr00"/>
      <point x="27" y="440" type="line"/>
      <point x="287" y="440" type="line"/>
      <point x="7" y="15" type="line"/>
      <point x="7" y="0" type="line"/>
      <point x="367" y="0" type="line"/>
      <point x="366" y="50" type="line"/>
      <point x="97" y="50" type="line"/>
      <point x="377" y="475" type="line"/>
      <point x="377" y="490" type="line"/>
    </contour>
  </outline>
</glyph>
<glyph name="underscore" format="1">
  <advance width="374"/>
  <unicode hex="005F"/>
  <outline>
    <contour>
      <point x="337" y="-48" type="line" name="hr00"/>
      <point x="337" y="0" type="line"/>
      <point x="37" y="0" type="line"/>
      <point x="37" y="-48" type="line"/>
    </contour>
  </outline>
</glyph>
<glyph name="a" format="1">
  <advance width="354"/>
  <unicode hex="0061"/>
  <outline>
    <contour>
      <point x="167" y="35" type="curve" smooth="yes" name="hr00"/>
      <point x="128" y="35"/>
      <point x="92" y="48"/>
      <point x="92" y="95" type="curve" smooth="yes"/>
      <point x="92" y="136"/>
      <point x="137" y="155"/>
      <point x="177" y="155" type="curve" smooth="yes"/>
      <point x="197" y="155"/>
      <point x="218" y="158"/>
      <point x="234" y="162" type="curve" smooth="yes"/>
      <point x="243" y="165"/>
      <point x="253" y="167"/>
      <point x="262" y="170" type="curve"/>
      <point x="262" y="85" type="line"/>
      <point x="246" y="62"/>
      <point x="207" y="35"/>
    </contour>
    <contour>
      <point x="317" y="230" type="line"/>
      <point x="317" y="330"/>
      <point x="238" y="365"/>
      <point x="169" y="365" type="curve" smooth="yes"/>
      <point x="118" y="365"/>
      <point x="64" y="346"/>
      <point x="37" y="300" type="curve"/>
      <point x="57" y="255" type="line"/>
      <point x="77" y="296"/>
      <point x="124" y="320"/>
      <point x="169" y="320" type="curve" smooth="yes"/>
      <point x="225" y="320"/>
      <point x="262" y="291"/>
      <point x="262" y="215" type="curve"/>
      <point x="257" y="212"/>
      <point x="250" y="210"/>
      <point x="241" y="207" type="curve" smooth="yes"/>
      <point x="226" y="203"/>
      <point x="202" y="200"/>
      <point x="167" y="200" type="curve" smooth="yes"/>
      <point x="117" y="200"/>
      <point x="40" y="183"/>
      <point x="37" y="95" type="curve" smooth="yes"/>
      <point x="34" y="26"/>
      <point x="86" y="-8"/>
      <point x="157" y="-8" type="curve" smooth="yes"/>
      <point x="208" y="-8"/>
      <point x="243" y="19"/>
      <point x="262" y="40" type="curve"/>
      <point x="262" y="-0" type="line"/>
      <point x="317" y="-0" type="line"/>
    </contour>
  </outline>
</glyph>
<glyph name="c" format="1">
  <advance width="304"/>
  <unicode hex="0063"/>
  <outline>
    <contour>
      <point x="297" y="20" type="curve" name="hr00"/>
      <point x="277" y="65" type="line"/>
      <point x="271" y="60"/>
      <point x="264" y="55"/>
      <point x="257" y="52" type="curve" smooth="yes"/>
      <point x="244" y="45"/>
      <point x="226" y="40"/>
      <point x="205" y="40" type="curve" smooth="yes"/>
      <point x="137" y="40"/>
      <point x="77" y="79"/>
      <point x="77" y="170" type="curve" smooth="yes"/>
      <point x="77" y="262"/>
      <point x="137" y="320"/>
      <point x="205" y="320" type="curve" smooth="yes"/>
      <point x="226" y="320"/>
      <point x="244" y="314"/>
      <point x="257" y="307" type="curve" smooth="yes"/>
      <point x="264" y="304"/>
      <point x="271" y="300"/>
      <point x="277" y="295" type="curve"/>
      <point x="297" y="340" type="line"/>
      <point x="288" y="345"/>
      <point x="279" y="349"/>
      <point x="270" y="352" type="curve" smooth="yes"/>
      <point x="253" y="359"/>
      <point x="232" y="365"/>
      <point x="205" y="365" type="curve" smooth="yes"/>
      <point x="98" y="365"/>
      <point x="22" y="287"/>
      <point x="22" y="170" type="curve" smooth="yes"/>
      <point x="22" y="59"/>
      <point x="96" y="-3"/>
      <point x="200" y="-3" type="curve" smooth="yes"/>
      <point x="228" y="-3"/>
      <point x="253" y="1"/>
      <point x="270" y="8" type="curve"/>
      <point x="280" y="11"/>
      <point x="289" y="15"/>
    </contour>
  </outline>
</glyph>
<glyph name="d" format="1">
  <advance width="404"/>
  <unicode hex="0064"/>
  <outline>
    <contour>
      <point x="312" y="95" type="line" name="hr00"/>
      <point x="279" y="62"/>
      <point x="240" y="40"/>
      <point x="192" y="40" type="curve" smooth="yes"/>
      <point x="142" y="40"/>
      <point x="77" y="80"/>
      <point x="77" y="186" type="curve" smooth="yes"/>
      <point x="77" y="270"/>
      <point x="142" y="320"/>
      <point x="192" y="320" type="curve" smooth="yes"/>
      <point x="241" y="320"/>
      <point x="278" y="296"/>
      <point x="312" y="265" type="curve"/>
    </contour>
    <contour>
      <point x="312" y="520" type="line"/>
      <point x="312" y="310" type="line"/>
      <point x="304" y="320"/>
      <point x="294" y="329"/>
      <point x="282" y="337" type="curve" smooth="yes"/>
      <point x="262" y="352"/>
      <point x="232" y="365"/>
      <point x="192" y="365" type="curve" smooth="yes"/>
      <point x="122" y="365"/>
      <point x="22" y="310"/>
      <point x="22" y="186" type="curve" smooth="yes"/>
      <point x="22" y="50"/>
      <point x="112" y="-3"/>
      <point x="192" y="-3" type="curve" smooth="yes"/>
      <point x="234" y="-3"/>
      <point x="286" y="15"/>
      <point x="312" y="50" type="curve"/>
      <point x="312" y="-0" type="line"/>
      <point x="367" y="-0" type="line"/>
      <point x="367" y="520" type="line"/>
    </contour>
  </outline>
</glyph>
<glyph name="e" format="1">
  <advance width="353"/>
  <unicode hex="0065"/>
  <outline>
    <contour>
      <point x="77" y="210" type="line" name="hr00"/>
      <point x="86" y="274"/>
      <point x="127" y="320"/>
      <point x="182" y="320" type="curve" smooth="yes"/>
      <point x="238" y="320"/>
      <point x="271" y="278"/>
      <point x="274" y="210" type="curve"/>
    </contour>
    <contour>
      <point x="331" y="191" type="line"/>
      <point x="331" y="303"/>
      <point x="274" y="365"/>
      <point x="182" y="365" type="curve" smooth="yes"/>
      <point x="90" y="365"/>
      <point x="22" y="283"/>
      <point x="22" y="174" type="curve" smooth="yes"/>
      <point x="22" y="49"/>
      <point x="93" y="-3"/>
      <point x="193" y="-3" type="curve" smooth="yes"/>
      <point x="230" y="-3"/>
      <point x="277" y="7"/>
      <point x="307" y="30" type="curve"/>
      <point x="287" y="75" type="line"/>
      <point x="267" y="47"/>
      <point x="225" y="40"/>
      <point x="193" y="40" type="curve" smooth="yes"/>
      <point x="128" y="40"/>
      <point x="77" y="80"/>
      <point x="77" y="165" type="curve"/>
      <point x="331" y="165" type="line"/>
    </contour>
  </outline>
</glyph>
<glyph name="f" format="1">
  <advance width="234"/>
  <unicode hex="0066"/>
  <outline>
    <contour>
      <point x="72" y="305" type="line" name="hr00"/>
      <point x="72" y="0" type="line"/>
      <point x="127" y="0" type="line"/>
      <point x="127" y="305" type="line"/>
      <point x="227" y="305" type="line"/>
      <point x="227" y="350" type="line"/>
      <point x="127" y="350" type="line"/>
      <point x="127" y="404" type="line" smooth="yes"/>
      <point x="127" y="461"/>
      <point x="146" y="485"/>
      <point x="189" y="485" type="curve" smooth="yes"/>
      <point x="204" y="485"/>
      <point x="211" y="483"/>
      <point x="218" y="482" type="curve" smooth="yes"/>
      <point x="221" y="481"/>
      <point x="224" y="481"/>
      <point x="227" y="480" type="curve"/>
      <point x="227" y="525" type="line"/>
      <point x="224" y="526"/>
      <point x="221" y="526"/>
      <point x="216" y="527" type="curve" smooth="yes"/>
      <point x="208" y="528"/>
      <point x="193" y="530"/>
      <point x="170" y="530" type="curve" smooth="yes"/>
      <point x="102" y="530"/>
      <point x="72" y="483"/>
      <point x="72" y="404" type="curve" smooth="yes"/>
      <point x="72" y="350" type="line"/>
      <point x="7" y="350" type="line"/>
      <point x="7" y="305" type="line"/>
    </contour>
  </outline>
</glyph>
<glyph name="g" format="1">
  <advance width="404"/>
  <unicode hex="0067"/>
  <outline>
    <contour>
      <point x="312" y="95" type="line" name="hr00"/>
      <point x="279" y="62"/>
      <point x="240" y="40"/>
      <point x="192" y="40" type="curve" smooth="yes"/>
      <point x="142" y="40"/>
      <point x="77" y="90"/>
      <point x="77" y="174" type="curve" smooth="yes"/>
      <point x="77" y="280"/>
      <point x="142" y="320"/>
      <point x="192" y="320" type="curve" smooth="yes"/>
      <point x="241" y="320"/>
      <point x="278" y="296"/>
      <point x="312" y="265" type="curve"/>
    </contour>
    <contour>
      <point x="312" y="310" type="line"/>
      <point x="304" y="320"/>
      <point x="294" y="329"/>
      <point x="282" y="337" type="curve" smooth="yes"/>
      <point x="262" y="352"/>
      <point x="232" y="365"/>
      <point x="192" y="365" type="curve" smooth="yes"/>
      <point x="112" y="365"/>
      <point x="22" y="310"/>
      <point x="22" y="174" type="curve" smooth="yes"/>
      <point x="22" y="50"/>
      <point x="122" y="-3"/>
      <point x="192" y="-3" type="curve" smooth="yes"/>
      <point x="234" y="-3"/>
      <point x="286" y="15"/>
      <point x="312" y="50" type="curve"/>
      <point x="312" y="1" type="line" smooth="yes"/>
      <point x="312" y="-91"/>
      <point x="266" y="-128"/>
      <point x="177" y="-128" type="curve" smooth="yes"/>
      <point x="141" y="-128"/>
      <point x="103" y="-119"/>
      <point x="77" y="-93" type="curve"/>
      <point x="57" y="-138" type="line"/>
      <point x="87" y="-164"/>
      <point x="139" y="-173"/>
      <point x="177" y="-173" type="curve" smooth="yes"/>
      <point x="308" y="-173"/>
      <point x="367" y="-118"/>
      <point x="367" y="11" type="curve" smooth="yes"/>
      <point x="367" y="360" type="line"/>
      <point x="312" y="360" type="line"/>
    </contour>
  </outline>
</glyph>
<glyph name="h" format="1">
  <advance width="374"/>
  <unicode hex="0068"/>
  <outline>
    <contour>
      <point x="337" y="-0" type="line" name="hr00"/>
      <point x="337" y="233" type="line" smooth="yes"/>
      <point x="337" y="308"/>
      <point x="299" y="365"/>
      <point x="202" y="365" type="curve" smooth="yes"/>
      <point x="158" y="365"/>
      <point x="112" y="340"/>
      <point x="92" y="300" type="curve"/>
      <point x="92" y="520" type="line"/>
      <point x="37" y="520" type="line"/>
      <point x="37" y="-0" type="line"/>
      <point x="92" y="-0" type="line"/>
      <point x="92" y="255" type="line"/>
      <point x="115" y="291"/>
      <point x="147" y="315"/>
      <point x="192" y="315" type="curve" smooth="yes"/>
      <point x="243" y="315"/>
      <point x="282" y="284"/>
      <point x="282" y="236" type="curve" smooth="yes"/>
      <point x="282" y="-0" type="line"/>
    </contour>
  </outline>
</glyph>
<glyph name="j" format="1">
  <advance width="129"/>
  <unicode hex="006A"/>
  <outline>
    <contour>
      <point x="-81" y="-113" type="curve" name="hr00"/>
      <point x="-101" y="-158" type="line"/>
      <point x="-97" y="-161"/>
      <point x="-92" y="-163"/>
      <point x="-87" y="-166" type="curve" smooth="yes"/>
      <point x="-78" y="-170"/>
      <point x="-64" y="-173"/>
      <point x="-43" y="-173" type="curve" smooth="yes"/>
      <point x="42" y="-173"/>
      <point x="92" y="-107"/>
      <point x="92" y="6" type="curve" smooth="yes"/>
      <point x="92" y="360" type="line"/>
      <point x="37" y="360" type="line"/>
      <point x="37" y="-4" type="line" smooth="yes"/>
      <point x="37" y="-87"/>
      <point x="8" y="-128"/>
      <point x="-43" y="-128" type="curve" smooth="yes"/>
      <point x="-52" y="-128"/>
      <point x="-61" y="-126"/>
      <point x="-69" y="-121" type="curve" smooth="yes"/>
      <point x="-73" y="-118"/>
      <point x="-77" y="-116"/>
    </contour>
    <contour>
      <point x="92" y="416" type="line"/>
      <point x="92" y="470" type="line"/>
      <point x="37" y="470" type="line"/>
      <point x="37" y="416" type="line"/>
    </contour>
  </outline>
</glyph>
<glyph name="k" format="1">
  <advance width="329"/>
  <unicode hex="006B"/>
  <outline>
    <contour>
      <point x="92" y="159" type="line" name="hr00"/>
      <point x="92" y="520" type="line"/>
      <point x="37" y="520" type="line"/>
      <point x="37" y="-0" type="line"/>
      <point x="92" y="-0" type="line"/>
      <point x="92" y="82" type="line"/>
      <point x="181" y="194" type="line"/>
      <point x="270" y="-0" type="line"/>
      <point x="322" y="-0" type="line"/>
      <point x="213" y="234" type="line"/>
      <point x="306" y="350" type="line"/>
      <point x="245" y="350" type="line"/>
    </contour>
  </outline>
</glyph>
<glyph name="l" format="1">
  <advance width="129"/>
  <unicode hex="006C"/>
  <outline>
    <contour>
      <point x="92" y="-0" type="line" name="hr00"/>
      <point x="92" y="520" type="line"/>
      <point x="37" y="520" type="line"/>
      <point x="37" y="-0" type="line"/>
    </contour>
  </outline>
</glyph>
<glyph name="p" format="1">
  <advance width="404"/>
  <unicode hex="0070"/>
  <outline>
    <contour>
      <point x="92" y="265" type="line" name="hr00"/>
      <point x="126" y="296"/>
      <point x="163" y="320"/>
      <point x="212" y="320" type="curve" smooth="yes"/>
      <point x="262" y="320"/>
      <point x="327" y="280"/>
      <point x="327" y="174" type="curve" smooth="yes"/>
      <point x="327" y="90"/>
      <point x="262" y="40"/>
      <point x="212" y="40" type="curve" smooth="yes"/>
      <point x="164" y="40"/>
      <point x="125" y="62"/>
      <point x="92" y="95" type="curve"/>
    </contour>
    <contour>
      <point x="92" y="-158" type="line"/>
      <point x="92" y="50" type="line"/>
      <point x="118" y="15"/>
      <point x="170" y="-3"/>
      <point x="212" y="-3" type="curve" smooth="yes"/>
      <point x="282" y="-3"/>
      <point x="382" y="50"/>
      <point x="382" y="174" type="curve" smooth="yes"/>
      <point x="382" y="310"/>
      <point x="292" y="365"/>
      <point x="212" y="365" type="curve" smooth="yes"/>
      <point x="172" y="365"/>
      <point x="142" y="352"/>
      <point x="122" y="337" type="curve" smooth="yes"/>
      <point x="110" y="329"/>
      <point x="100" y="320"/>
      <point x="92" y="310" type="curve"/>
      <point x="92" y="360" type="line"/>
      <point x="37" y="360" type="line"/>
      <point x="37" y="-158" type="line"/>
    </contour>
  </outline>
</glyph>
<glyph name="q" format="1">
  <advance width="404"/>
  <unicode hex="0071"/>
  <outline>
    <contour>
      <point x="312" y="95" type="line" name="hr00"/>
      <point x="279" y="62"/>
      <point x="240" y="40"/>
      <point x="192" y="40" type="curve" smooth="yes"/>
      <point x="142" y="40"/>
      <point x="77" y="90"/>
      <point x="77" y="174" type="curve" smooth="yes"/>
      <point x="77" y="280"/>
      <point x="142" y="320"/>
      <point x="192" y="320" type="curve" smooth="yes"/>
      <point x="241" y="320"/>
      <point x="278" y="296"/>
      <point x="312" y="265" type="curve"/>
    </contour>
    <contour>
      <point x="312" y="310" type="line"/>
      <point x="304" y="320"/>
      <point x="294" y="329"/>
      <point x="282" y="337" type="curve" smooth="yes"/>
      <point x="262" y="352"/>
      <point x="232" y="365"/>
      <point x="192" y="365" type="curve" smooth="yes"/>
      <point x="112" y="365"/>
      <point x="22" y="310"/>
      <point x="22" y="174" type="curve" smooth="yes"/>
      <point x="22" y="50"/>
      <point x="122" y="-3"/>
      <point x="192" y="-3" type="curve" smooth="yes"/>
      <point x="234" y="-3"/>
      <point x="286" y="15"/>
      <point x="312" y="50" type="curve"/>
      <point x="312" y="-158" type="line"/>
      <point x="367" y="-158" type="line"/>
      <point x="367" y="360" type="line"/>
      <point x="312" y="360" type="line"/>
    </contour>
  </outline>
</glyph>
<glyph name="r" format="1">
  <advance width="226"/>
  <unicode hex="0072"/>
  <outline>
    <contour>
      <point x="219" y="305" type="curve" name="hr00"/>
      <point x="219" y="360" type="line"/>
      <point x="216" y="361"/>
      <point x="212" y="361"/>
      <point x="208" y="362" type="curve" smooth="yes"/>
      <point x="201" y="363"/>
      <point x="193" y="365"/>
      <point x="182" y="365" type="curve" smooth="yes"/>
      <point x="151" y="365"/>
      <point x="129" y="340"/>
      <point x="114" y="315" type="curve" smooth="yes"/>
      <point x="105" y="300"/>
      <point x="98" y="284"/>
      <point x="92" y="265" type="curve"/>
      <point x="92" y="360" type="line"/>
      <point x="37" y="360" type="line"/>
      <point x="37" y="0" type="line"/>
      <point x="92" y="0" type="line"/>
      <point x="92" y="212" type="line"/>
      <point x="101" y="230"/>
      <point x="111" y="246"/>
      <point x="122" y="261" type="curve" smooth="yes"/>
      <point x="139" y="285"/>
      <point x="162" y="310"/>
      <point x="182" y="310" type="curve" smooth="yes"/>
      <point x="193" y="310"/>
      <point x="201" y="308"/>
      <point x="208" y="307" type="curve" smooth="yes"/>
      <point x="212" y="306"/>
      <point x="216" y="306"/>
    </contour>
  </outline>
</glyph>
<glyph name="t" format="1">
  <advance width="234"/>
  <unicode hex="0074"/>
  <outline>
    <contour>
      <point x="72" y="305" type="line" name="hr00"/>
      <point x="72" y="121" type="line" smooth="yes"/>
      <point x="72" y="42"/>
      <point x="102" y="-3"/>
      <point x="170" y="-3" type="curve" smooth="yes"/>
      <point x="193" y="-3"/>
      <point x="208" y="-3"/>
      <point x="216" y="-2" type="curve" smooth="yes"/>
      <point x="221" y="-1"/>
      <point x="224" y="-1"/>
      <point x="227" y="-0" type="curve"/>
      <point x="227" y="45" type="line"/>
      <point x="218" y="42" type="line"/>
      <point x="211" y="41"/>
      <point x="204" y="40"/>
      <point x="189" y="40" type="curve" smooth="yes"/>
      <point x="146" y="40"/>
      <point x="127" y="64"/>
      <point x="127" y="121" type="curve" smooth="yes"/>
      <point x="127" y="305" type="line"/>
      <point x="227" y="305" type="line"/>
      <point x="227" y="350" type="line"/>
      <point x="127" y="350" type="line"/>
      <point x="127" y="520" type="line"/>
      <point x="72" y="520" type="line"/>
      <point x="72" y="350" type="line"/>
      <point x="7" y="350" type="line"/>
      <point x="7" y="305" type="line"/>
    </contour>
  </outline>
</glyph>
<glyph name="u" format="1">
  <advance width="374"/>
  <unicode hex="0075"/>
  <outline>
    <contour>
      <point x="37" y="360" type="line" name="hr00"/>
      <point x="37" y="127" type="line" smooth="yes"/>
      <point x="37" y="53"/>
      <point x="75" y="-3"/>
      <point x="172" y="-3" type="curve" smooth="yes"/>
      <point x="211" y="-3"/>
      <point x="238" y="12"/>
      <point x="257" y="28" type="curve" smooth="yes"/>
      <point x="268" y="37"/>
      <point x="276" y="48"/>
      <point x="282" y="60" type="curve"/>
      <point x="282" y="0" type="line"/>
      <point x="337" y="0" type="line"/>
      <point x="337" y="360" type="line"/>
      <point x="282" y="360" type="line"/>
      <point x="282" y="105" type="line"/>
      <point x="275" y="94"/>
      <point x="267" y="84"/>
      <point x="258" y="75" type="curve" smooth="yes"/>
      <point x="242" y="60"/>
      <point x="217" y="45"/>
      <point x="182" y="45" type="curve" smooth="yes"/>
      <point x="131" y="45"/>
      <point x="92" y="76"/>
      <point x="92" y="124" type="curve" smooth="yes"/>
      <point x="92" y="360" type="line"/>
    </contour>
  </outline>
</glyph>
<glyph name="v" format="1">
  <advance width="344"/>
  <unicode hex="0076"/>
  <outline>
    <contour>
      <point x="177" y="65" type="line" name="hr00"/>
      <point x="72" y="360" type="line"/>
      <point x="7" y="360" type="line"/>
      <point x="142" y="-0" type="line"/>
      <point x="212" y="-0" type="line"/>
      <point x="337" y="360" type="line"/>
      <point x="282" y="360" type="line"/>
    </contour>
  </outline>
</glyph>
<glyph name="x" format="1">
  <advance width="314"/>
  <unicode hex="0078"/>
  <outline>
    <contour>
      <point x="157" y="225" type="line" name="hr00"/>
      <point x="67" y="360" type="line"/>
      <point x="7" y="360" type="line"/>
      <point x="127" y="180" type="line"/>
      <point x="7" y="-0" type="line"/>
      <point x="67" y="-0" type="line"/>
      <point x="157" y="130" type="line"/>
      <point x="247" y="-0" type="line"/>
      <point x="307" y="-0" type="line"/>
      <point x="187" y="175" type="line"/>
      <point x="307" y="360" type="line"/>
      <point x="247" y="360" type="line"/>
    </contour>
  </outline>
</glyph>
<glyph name="y" format="1">
  <advance width="368"/>
  <unicode hex="0079"/>
  <outline>
    <contour>
      <point x="27" y="-113" type="curve" name="hr00"/>
      <point x="7" y="-158" type="line"/>
      <point x="11" y="-161"/>
      <point x="16" y="-163"/>
      <point x="22" y="-166" type="curve" smooth="yes"/>
      <point x="33" y="-170"/>
      <point x="46" y="-173"/>
      <point x="67" y="-173" type="curve" smooth="yes"/>
      <point x="142" y="-173"/>
      <point x="163" y="-142"/>
      <point x="193" y="-69" type="curve"/>
      <point x="361" y="360" type="line"/>
      <point x="301" y="360" type="line"/>
      <point x="196" y="75" type="line"/>
      <point x="71" y="360" type="line"/>
      <point x="11" y="360" type="line"/>
      <point x="166" y="-0" type="line"/>
      <point x="132" y="-81" type="line" smooth="yes"/>
      <point x="117" y="-118"/>
      <point x="96" y="-128"/>
      <point x="67" y="-128" type="curve" smooth="yes"/>
      <point x="56" y="-128"/>
      <point x="47" y="-126"/>
      <point x="39" y="-121" type="curve" smooth="yes"/>
      <point x="35" y="-118"/>
      <point x="31" y="-116"/>
    </contour>
  </outline>
</glyph>
<glyph name="z" format="1">
  <advance width="332"/>
  <unicode hex="007A"/>
  <outline>
    <contour>
      <point x="56" y="360" type="line" name="hr00"/>
      <point x="56" y="315" type="line"/>
      <point x="242" y="315" type="line"/>
      <point x="37" y="16" type="line"/>
      <point x="37" y="-0" type="line"/>
      <point x="322" y="-0" type="line"/>
      <point x="322" y="45" type="line"/>
      <point x="122" y="45" type="line"/>
      <point x="325" y="341" type="line"/>
      <point x="325" y="360" type="line"/>
    </contour>
  </outline>
</glyph>
<glyph name="braceright" format="1">
  <advance width="209"/>
  <unicode hex="007D"/>
  <outline>
    <contour>
      <point x="7" y="-124" type="curve" name="hr00"/>
      <point x="7" y="-173" type="line"/>
      <point x="86" y="-173"/>
      <point x="125" y="-132"/>
      <point x="125" y="-51" type="curve" smooth="yes"/>
      <point x="125" y="67" type="line" smooth="yes"/>
      <point x="125" y="120"/>
      <point x="146" y="149"/>
      <point x="187" y="154" type="curve"/>
      <point x="187" y="197" type="line"/>
      <point x="147" y="201"/>
      <point x="125" y="226"/>
      <point x="125" y="281" type="curve" smooth="yes"/>
      <point x="125" y="398" type="line" smooth="yes"/>
      <point x="125" y="482"/>
      <point x="87" y="521"/>
      <point x="7" y="525" type="curve"/>
      <point x="7" y="476" type="line"/>
      <point x="46" y="473"/>
      <point x="69" y="447"/>
      <point x="69" y="396" type="curve" smooth="yes"/>
      <point x="69" y="276" type="line" smooth="yes"/>
      <point x="69" y="223"/>
      <point x="87" y="186"/>
      <point x="134" y="173" type="curve"/>
      <point x="90" y="162"/>
      <point x="69" y="126"/>
      <point x="69" y="70" type="curve" smooth="yes"/>
      <point x="69" y="-44" type="line" smooth="yes"/>
      <point x="69" y="-101"/>
      <point x="54" y="-124"/>
    </contour>
  </outline>
</glyph>
<glyph name="copyright" format="1">
  <advance width="657"/>
  <unicode hex="00A9"/>
  <outline>
    <contour>
      <point x="67" y="242" type="curve" smooth="yes" name="hr00"/>
      <point x="67" y="387"/>
      <point x="184" y="503"/>
      <point x="329" y="503" type="curve" smooth="yes"/>
      <point x="474" y="503"/>
      <point x="590" y="387"/>
      <point x="590" y="242" type="curve" smooth="yes"/>
      <point x="590" y="97"/>
      <point x="474" y="-17"/>
      <point x="329" y="-17" type="curve" smooth="yes"/>
      <point x="184" y="-17"/>
      <point x="67" y="97"/>
    </contour>
    <contour>
      <point x="426" y="102" type="line"/>
      <point x="399" y="87"/>
      <point x="382" y="82"/>
      <point x="347" y="82" type="curve" smooth="yes"/>
      <point x="259" y="82"/>
      <point x="202" y="140"/>
      <point x="202" y="237" type="curve" smooth="yes"/>
      <point x="202" y="331"/>
      <point x="259" y="396"/>
      <point x="347" y="396" type="curve" smooth="yes"/>
      <point x="374" y="396"/>
      <point x="402" y="394"/>
      <point x="426" y="383" type="curve"/>
      <point x="438" y="409" type="line"/>
      <point x="414" y="418"/>
      <point x="378" y="422"/>
      <point x="347" y="422" type="curve" smooth="yes"/>
      <point x="240" y="422"/>
      <point x="168" y="351"/>
      <point x="168" y="237" type="curve" smooth="yes"/>
      <point x="168" y="124"/>
      <point x="237" y="55"/>
      <point x="342" y="55" type="curve" smooth="yes"/>
      <point x="378" y="55"/>
      <point x="411" y="59"/>
      <point x="438" y="74" type="curve"/>
    </contour>
    <contour>
      <point x="37" y="242" type="curve" smooth="yes"/>
      <point x="37" y="80"/>
      <point x="167" y="-47"/>
      <point x="329" y="-47" type="curve" smooth="yes"/>
      <point x="492" y="-47"/>
      <point x="620" y="80"/>
      <point x="620" y="242" type="curve" smooth="yes"/>
      <point x="620" y="405"/>
      <point x="492" y="533"/>
      <point x="329" y="533" type="curve" smooth="yes"/>
      <point x="167" y="533"/>
      <point x="37" y="405"/>
    </contour>
  </outline>
</glyph>
<glyph name="onequarter" format="1">
  <advance width="691"/>
  <unicode hex="00BC"/>
  <outline>
    <contour>
      <point x="514" y="114" type="line" name="hr00"/>
      <point x="601" y="241" type="line"/>
      <point x="601" y="114" type="line"/>
    </contour>
    <contour>
      <point x="601" y="86" type="line"/>
      <point x="601" y="20" type="line"/>
      <point x="634" y="20" type="line"/>
      <point x="634" y="86" type="line"/>
      <point x="668" y="86" type="line"/>
      <point x="668" y="114" type="line"/>
      <point x="634" y="114" type="line"/>
      <point x="634" y="290" type="line"/>
      <point x="601" y="290" type="line"/>
      <point x="478" y="114" type="line"/>
      <point x="478" y="86" type="line"/>
    </contour>
    <contour>
      <point x="105" y="590" type="line"/>
      <point x="100" y="584"/>
      <point x="94" y="578"/>
      <point x="87" y="573" type="curve" smooth="yes"/>
      <point x="76" y="564"/>
      <point x="60" y="553"/>
      <point x="44" y="546" type="curve"/>
      <point x="44" y="518" type="line"/>
      <point x="67" y="523"/>
      <point x="92" y="538"/>
      <point x="104" y="546" type="curve"/>
      <point x="104" y="320" type="line"/>
      <point x="137" y="320" type="line"/>
      <point x="137" y="590" type="line"/>
    </contour>
    <contour>
      <point x="157" y="-0" type="line"/>
      <point x="213" y="-0" type="line"/>
      <point x="574" y="602" type="line"/>
      <point x="518" y="602" type="line"/>
    </contour>
  </outline>
</glyph>
<glyph name="threequarters" format="1">
  <advance width="690"/>
  <unicode hex="00BE"/>
  <outline>
    <contour>
      <point x="513" y="114" type="line" name="hr00"/>
      <point x="600" y="241" type="line"/>
      <point x="600" y="114" type="line"/>
    </contour>
    <contour>
      <point x="600" y="86" type="line"/>
      <point x="600" y="20" type="line"/>
      <point x="633" y="20" type="line"/>
      <point x="633" y="86" type="line"/>
      <point x="667" y="86" type="line"/>
      <point x="667" y="114" type="line"/>
      <point x="633" y="114" type="line"/>
      <point x="633" y="290" type="line"/>
      <point x="600" y="290" type="line"/>
      <point x="477" y="114" type="line"/>
      <point x="477" y="86" type="line"/>
    </contour>
    <contour>
      <point x="196" y="399" type="curve" smooth="yes"/>
      <point x="196" y="435"/>
      <point x="165" y="460"/>
      <point x="130" y="465" type="curve"/>
      <point x="167" y="476"/>
      <point x="185" y="500"/>
      <point x="185" y="535" type="curve" smooth="yes"/>
      <point x="185" y="572"/>
      <point x="152" y="600"/>
      <point x="109" y="600" type="curve" smooth="yes"/>
      <point x="86" y="600"/>
      <point x="65" y="594"/>
      <point x="48" y="583" type="curve"/>
      <point x="48" y="556" type="line"/>
      <point x="65" y="568"/>
      <point x="90" y="572"/>
      <point x="109" y="572" type="curve" smooth="yes"/>
      <point x="134" y="572"/>
      <point x="152" y="561"/>
      <point x="152" y="526" type="curve" smooth="yes"/>
      <point x="152" y="501"/>
      <point x="131" y="489"/>
      <point x="108" y="482" type="curve" smooth="yes"/>
      <point x="95" y="479"/>
      <point x="81" y="477"/>
      <point x="65" y="476" type="curve"/>
      <point x="65" y="450" type="line"/>
      <point x="138" y="450"/>
      <point x="163" y="432"/>
      <point x="163" y="396" type="curve" smooth="yes"/>
      <point x="163" y="363"/>
      <point x="135" y="347"/>
      <point x="100" y="347" type="curve" smooth="yes"/>
      <point x="76" y="347"/>
      <point x="56" y="350"/>
      <point x="37" y="365" type="curve"/>
      <point x="37" y="336" type="line"/>
      <point x="53" y="327"/>
      <point x="73" y="320"/>
      <point x="100" y="320" type="curve" smooth="yes"/>
      <point x="156" y="320"/>
      <point x="196" y="348"/>
    </contour>
    <contour>
      <point x="156" y="-0" type="line"/>
      <point x="212" y="-0" type="line"/>
      <point x="573" y="602" type="line"/>
      <point x="517" y="602" type="line"/>
    </contour>
  </outline>
</glyph>
<glyph name="uni0E01" format="1">
  <advance width="429"/>
  <unicode hex="0E01"/>
  <outline>
    <contour>
      <point x="332" y="0" type="line" name="hr00"/>
      <point x="352" y="0" type="line"/>
      <point x="359" y="5"/>
      <point x="366" y="10"/>
      <point x="372" y="17" type="curve" smooth="yes"/>
      <point x="383" y="28"/>
      <point x="392" y="41"/>
      <point x="392" y="60" type="curve" smooth="yes"/>
      <point x="392" y="300" type="line" smooth="yes"/>
      <point x="392" y="400"/>
      <point x="287" y="440"/>
      <point x="197" y="440" type="curve" smooth="yes"/>
      <point x="133" y="440"/>
      <point x="91" y="412"/>
      <point x="63" y="385" type="curve" smooth="yes"/>
      <point x="46" y="368"/>
      <point x="33" y="350"/>
      <point x="22" y="330" type="curve"/>
      <point x="82" y="280" type="line"/>
      <point x="69.4251" y="261.138"/>
      <point x="62" y="230.843"/>
      <point x="62" y="200" type="curve" smooth="yes"/>
      <point x="62" y="0" type="line"/>
      <point x="122" y="0" type="line"/>
      <point x="122" y="200" type="line" smooth="yes"/>
      <point x="122" y="235.266"/>
      <point x="129.758" y="264.698"/>
      <point x="142" y="280" type="curve"/>
      <point x="82" y="330" type="line"/>
      <point x="90" y="341"/>
      <point x="100" y="351"/>
      <point x="111" y="360" type="curve" smooth="yes"/>
      <point x="130" y="375"/>
      <point x="158" y="390"/>
      <point x="197" y="390" type="curve" smooth="yes"/>
      <point x="257" y="390"/>
      <point x="332" y="371"/>
      <point x="332" y="280" type="curve" smooth="yes"/>
    </contour>
  </outline>
</glyph>
<glyph name="uni0E04" format="1">
  <advance width="434"/>
  <unicode hex="0E04"/>
  <outline>
    <contour>
      <point x="97" y="180" type="curve" name="hr00"/>
      <point x="97" y="300" type="line" smooth="yes"/>
      <point x="97" y="360"/>
      <point x="157" y="390"/>
      <point x="217" y="390" type="curve" smooth="yes"/>
      <point x="277" y="390"/>
      <point x="337" y="360"/>
      <point x="337" y="300" type="curve" smooth="yes"/>
      <point x="337" y="-0" type="line"/>
      <point x="397" y="-0" type="line"/>
      <point x="397" y="300" type="line" smooth="yes"/>
      <point x="397" y="391"/>
      <point x="307" y="440"/>
      <point x="217" y="440" type="curve" smooth="yes"/>
      <point x="127" y="440"/>
      <point x="37" y="391"/>
      <point x="37" y="300" type="curve" smooth="yes"/>
      <point x="37" y="-0" type="line"/>
      <point x="97" y="-0" type="line"/>
      <point x="97" y="130" type="line"/>
      <point x="126" y="159"/>
      <point x="166" y="180"/>
      <point x="207" y="180" type="curve"/>
      <point x="207" y="240" type="line"/>
      <point x="164" y="240"/>
      <point x="123" y="212"/>
    </contour>
  </outline>
</glyph>
<glyph name="uni0E05" format="1">
  <advance width="434"/>
  <unicode hex="0E05"/>
  <outline>
    <contour>
      <point x="97" y="-0" type="line" name="hr00"/>
      <point x="97" y="130" type="line"/>
      <point x="126" y="159"/>
      <point x="166" y="180"/>
      <point x="207" y="180" type="curve"/>
      <point x="207" y="240" type="line"/>
      <point x="164" y="240"/>
      <point x="123" y="212"/>
      <point x="97" y="180" type="curve"/>
      <point x="97" y="300" type="line" smooth="yes"/>
      <point x="97" y="340"/>
      <point x="116" y="390"/>
      <point x="157" y="390" type="curve" smooth="yes"/>
      <point x="168" y="390"/>
      <point x="181" y="375"/>
      <point x="194" y="360" type="curve" smooth="yes"/>
      <point x="201" y="351"/>
      <point x="209" y="341"/>
      <point x="217" y="330" type="curve"/>
      <point x="227" y="346"/>
      <point x="259" y="390"/>
      <point x="277" y="390" type="curve" smooth="yes"/>
      <point x="316" y="390"/>
      <point x="337" y="340"/>
      <point x="337" y="300" type="curve" smooth="yes"/>
      <point x="337" y="-0" type="line"/>
      <point x="397" y="-0" type="line"/>
      <point x="397" y="300" type="line" smooth="yes"/>
      <point x="397" y="370"/>
      <point x="346" y="440"/>
      <point x="277" y="440" type="curve" smooth="yes"/>
      <point x="253" y="440"/>
      <point x="229" y="409"/>
      <point x="217" y="390" type="curve"/>
      <point x="205" y="409"/>
      <point x="181" y="440"/>
      <point x="157" y="440" type="curve" smooth="yes"/>
      <point x="88" y="440"/>
      <point x="37" y="370"/>
      <point x="37" y="300" type="curve" smooth="yes"/>
      <point x="37" y="-0" type="line"/>
    </contour>
  </outline>
</glyph>
<glyph name="uni0E07" format="1">
  <advance width="364"/>
  <unicode hex="0E07"/>
    <anchor name="b.uni0E38_2" x="203" y="-75"/>
  <outline>
    <contour>
      <point x="92" y="-0" type="line" name="hr00"/>
      <point x="142" y="-0" type="line" smooth="yes"/>
      <point x="240" y="-0"/>
      <point x="342" y="85"/>
      <point x="342" y="215" type="curve" smooth="yes"/>
      <point x="342" y="345"/>
      <point x="252" y="430"/>
      <point x="132" y="430" type="curve"/>
      <point x="132" y="380" type="line"/>
      <point x="212" y="380"/>
      <point x="282" y="315"/>
      <point x="282" y="215" type="curve" smooth="yes"/>
      <point x="282" y="115"/>
      <point x="213" y="50"/>
      <point x="142" y="50" type="curve"/>
      <point x="82" y="290" type="line"/>
      <point x="22" y="290" type="line"/>
    </contour>
    <contour>
      <point x="203" y="-75" type="move" name="b.uni0E38_2"/>
    </contour>
  </outline>
</glyph>
<glyph name="uni0E08" format="1">
  <advance width="414"/>
  <unicode hex="0E08"/>
    <anchor name="b.uni0E38_2" x="268" y="-75"/>
  <outline>
    <contour>
      <point x="152" y="-0" type="line" name="hr00"/>
      <point x="202" y="-0" type="line" smooth="yes"/>
      <point x="322" y="-0"/>
      <point x="392" y="100"/>
      <point x="392" y="225" type="curve" smooth="yes"/>
      <point x="392" y="340"/>
      <point x="313" y="440"/>
      <point x="182" y="440" type="curve" smooth="yes"/>
      <point x="116" y="440"/>
      <point x="49" y="414"/>
      <point x="22" y="350" type="curve"/>
      <point x="42" y="300" type="line"/>
      <point x="68" y="354"/>
      <point x="121" y="390"/>
      <point x="182" y="390" type="curve" smooth="yes"/>
      <point x="252" y="390"/>
      <point x="332" y="340"/>
      <point x="332" y="225" type="curve" smooth="yes"/>
      <point x="332" y="140"/>
      <point x="290" y="50"/>
      <point x="202" y="50" type="curve"/>
      <point x="162" y="190" type="line"/>
      <point x="154" y="210"/>
      <point x="143" y="220"/>
      <point x="112" y="220" type="curve" smooth="yes"/>
      <point x="72" y="220" type="line"/>
      <point x="72" y="170" type="line"/>
      <point x="92" y="170" type="line"/>
      <point x="94" y="170"/>
      <point x="95" y="170"/>
      <point x="97" y="170" type="curve"/>
      <point x="105" y="170"/>
      <point x="109" y="169"/>
      <point x="112" y="160" type="curve"/>
    </contour>
    <contour>
      <point x="268" y="-75" type="move" name="b.uni0E38_2"/>
    </contour>
  </outline>
</glyph>
<glyph name="uni0E09" format="1">
  <advance width="429"/>
  <unicode hex="0E09"/>
  <outline>
    <contour>
      <point x="62" y="160" type="curve" smooth="yes" name="hr00"/>
      <point x="62" y="140" type="line" smooth="yes"/>
      <point x="62" y="49"/>
      <point x="102" y="-8"/>
      <point x="182" y="-8" type="curve" smooth="yes"/>
      <point x="237" y="-8"/>
      <point x="295" y="20"/>
      <point x="332" y="60" type="curve"/>
      <point x="332" y="-0" type="line"/>
      <point x="392" y="-0" type="line"/>
      <point x="392" y="270" type="line" smooth="yes"/>
      <point x="392" y="370"/>
      <point x="335" y="440"/>
      <point x="212" y="440" type="curve" smooth="yes"/>
      <point x="158" y="440"/>
      <point x="91" y="419"/>
      <point x="52" y="380" type="curve"/>
      <point x="72" y="330" type="line"/>
      <point x="110" y="365"/>
      <point x="160" y="390"/>
      <point x="212" y="390" type="curve" smooth="yes"/>
      <point x="293" y="390"/>
      <point x="332" y="340"/>
      <point x="332" y="260" type="curve" smooth="yes"/>
      <point x="332" y="110" type="line"/>
      <point x="297" y="78"/>
      <point x="250" y="50"/>
      <point x="202" y="50" type="curve" smooth="yes"/>
      <point x="132" y="50"/>
      <point x="122" y="80"/>
      <point x="122" y="140" type="curve" smooth="yes"/>
      <point x="122" y="168" type="line" smooth="yes"/>
      <point x="122" y="211"/>
      <point x="102" y="240"/>
      <point x="62" y="240" type="curve" smooth="yes"/>
      <point x="22" y="240" type="line"/>
      <point x="22" y="190" type="line"/>
      <point x="50" y="190" type="line" smooth="yes"/>
      <point x="62" y="190"/>
      <point x="62" y="171"/>
    </contour>
  </outline>
</glyph>
<glyph name="uni0E0A" format="1">
  <advance width="384"/>
  <unicode hex="0E0A"/>
    <anchor name="t.uni0E34" x="270" y="505"/>
    <anchor name="t.uni0E4D_1" x="288" y="505"/>
    <anchor name="t.uni0E31_2" x="315" y="505"/>
    <anchor name="t.uni0E47.sm_3" x="280" y="505"/>
    <anchor name="t.uni0E4C_4" x="236" y="505"/>
    <anchor name="t.uni0E4B_5" x="264" y="505"/>
    <anchor name="b.uni0E38" x="308" y="-75"/>
  <outline>
    <contour>
      <point x="112" y="129" type="curve" smooth="yes" name="hr00"/>
      <point x="112" y="180" type="line" smooth="yes"/>
      <point x="112" y="223"/>
      <point x="131" y="249"/>
      <point x="142" y="260" type="curve" smooth="yes"/>
      <point x="162" y="280"/>
      <point x="182" y="307"/>
      <point x="182" y="340" type="curve" smooth="yes"/>
      <point x="182" y="400"/>
      <point x="142" y="430"/>
      <point x="82" y="430" type="curve" smooth="yes"/>
      <point x="22" y="430" type="line"/>
      <point x="22" y="380" type="line"/>
      <point x="82" y="380" type="line" smooth="yes"/>
      <point x="113" y="380"/>
      <point x="122" y="360"/>
      <point x="122" y="340" type="curve" smooth="yes"/>
      <point x="122" y="329"/>
      <point x="110" y="311"/>
      <point x="102" y="300" type="curve"/>
      <point x="81" y="276"/>
      <point x="52" y="248"/>
      <point x="52" y="180" type="curve" smooth="yes"/>
      <point x="52" y="133" type="line" smooth="yes"/>
      <point x="52" y="56"/>
      <point x="79" y="-8"/>
      <point x="199" y="-8" type="curve" smooth="yes"/>
      <point x="319" y="-8"/>
      <point x="352" y="77"/>
      <point x="352" y="154" type="curve" smooth="yes"/>
      <point x="352" y="277"/>
      <point x="266" y="308"/>
      <point x="262" y="310" type="curve"/>
      <point x="270" y="313"/>
      <point x="362" y="349"/>
      <point x="362" y="520" type="curve"/>
      <point x="302" y="520" type="line"/>
      <point x="302" y="420"/>
      <point x="262" y="335"/>
      <point x="202" y="335" type="curve"/>
      <point x="202" y="285" type="line"/>
      <point x="262" y="285"/>
      <point x="292" y="224"/>
      <point x="292" y="154" type="curve" smooth="yes"/>
      <point x="292" y="112"/>
      <point x="263" y="40"/>
      <point x="199" y="40" type="curve" smooth="yes"/>
      <point x="123" y="40"/>
      <point x="112" y="84"/>
    </contour>
    <contour>
      <point x="270" y="505" type="move" name="t.uni0E34"/>
    </contour>
    <contour>
      <point x="288" y="505" type="move" name="t.uni0E4D_1"/>
    </contour>
    <contour>
      <point x="315" y="505" type="move" name="t.uni0E31_2"/>
    </contour>
    <contour>
      <point x="280" y="505" type="move" name="t.uni0E47.sm_3"/>
    </contour>
    <contour>
      <point x="236" y="505" type="move" name="t.uni0E4C_4"/>
    </contour>
    <contour>
      <point x="264" y="505" type="move" name="t.uni0E4B_5"/>
    </contour>
    <contour>
      <point x="308" y="-75" type="move" name="b.uni0E38"/>
    </contour>
  </outline>
</glyph>
<glyph name="uni0E0B" format="1">
  <advance width="384"/>
  <unicode hex="0E0B"/>
    <anchor name="t.uni0E34" x="270" y="505"/>
    <anchor name="t.uni0E4D_1" x="288" y="505"/>
    <anchor name="t.uni0E31_2" x="315" y="505"/>
    <anchor name="t.uni0E47.sm_3" x="280" y="505"/>
    <anchor name="t.uni0E4C_4" x="236" y="505"/>
    <anchor name="t.uni0E4B_5" x="268" y="505"/>
    <anchor name="b.uni0E38" x="308" y="-75"/>
  <outline>
    <contour>
      <point x="199" y="-8" type="curve" smooth="yes" name="hr00"/>
      <point x="319" y="-8"/>
      <point x="352" y="77"/>
      <point x="352" y="154" type="curve" smooth="yes"/>
      <point x="352" y="277"/>
      <point x="266" y="308"/>
      <point x="262" y="310" type="curve"/>
      <point x="270" y="313"/>
      <point x="362" y="349"/>
      <point x="362" y="520" type="curve"/>
      <point x="302" y="520" type="line"/>
      <point x="302" y="420"/>
      <point x="262" y="335"/>
      <point x="202" y="335" type="curve"/>
      <point x="202" y="285" type="line"/>
      <point x="262" y="285"/>
      <point x="292" y="224"/>
      <point x="292" y="154" type="curve" smooth="yes"/>
      <point x="292" y="112"/>
      <point x="263" y="40"/>
      <point x="199" y="40" type="curve" smooth="yes"/>
      <point x="123" y="40"/>
      <point x="112" y="84"/>
      <point x="112" y="129" type="curve" smooth="yes"/>
      <point x="112" y="190" type="line" smooth="yes"/>
      <point x="112" y="230"/>
      <point x="142" y="260"/>
      <point x="152" y="270" type="curve" smooth="yes"/>
      <point x="172" y="290"/>
      <point x="192" y="310"/>
      <point x="192" y="350" type="curve" smooth="yes"/>
      <point x="192" y="401"/>
      <point x="162" y="430"/>
      <point x="122" y="430" type="curve" smooth="yes"/>
      <point x="107" y="430"/>
      <point x="94" y="422"/>
      <point x="83" y="415" type="curve" smooth="yes"/>
      <point x="77" y="410"/>
      <point x="72" y="405"/>
      <point x="67" y="400" type="curve"/>
      <point x="52" y="415" type="line"/>
      <point x="43" y="422"/>
      <point x="33" y="430"/>
      <point x="22" y="430" type="curve"/>
      <point x="22" y="381" type="line"/>
      <point x="37" y="381"/>
      <point x="53" y="361"/>
      <point x="62" y="350" type="curve"/>
      <point x="67" y="355"/>
      <point x="71" y="360"/>
      <point x="76" y="365" type="curve" smooth="yes"/>
      <point x="84" y="372"/>
      <point x="94" y="380"/>
      <point x="102" y="380" type="curve" smooth="yes"/>
      <point x="117" y="380"/>
      <point x="132" y="370"/>
      <point x="132" y="350" type="curve" smooth="yes"/>
      <point x="132" y="319"/>
      <point x="113" y="311"/>
      <point x="102" y="300" type="curve" smooth="yes"/>
      <point x="71" y="269"/>
      <point x="52" y="230"/>
      <point x="52" y="190" type="curve" smooth="yes"/>
      <point x="52" y="133" type="line" smooth="yes"/>
      <point x="52" y="56"/>
      <point x="79" y="-8"/>
    </contour>
    <contour>
      <point x="270" y="505" type="move" name="t.uni0E34"/>
    </contour>
    <contour>
      <point x="288" y="505" type="move" name="t.uni0E4D_1"/>
    </contour>
    <contour>
      <point x="315" y="505" type="move" name="t.uni0E31_2"/>
    </contour>
    <contour>
      <point x="280" y="505" type="move" name="t.uni0E47.sm_3"/>
    </contour>
    <contour>
      <point x="236" y="505" type="move" name="t.uni0E4C_4"/>
    </contour>
    <contour>
      <point x="268" y="505" type="move" name="t.uni0E4B_5"/>
    </contour>
    <contour>
      <point x="308" y="-75" type="move" name="b.uni0E38"/>
    </contour>
  </outline>
</glyph>
<glyph name="uni0E0E" format="1">
  <advance width="429"/>
  <unicode hex="0E0E"/>
    <anchor name="b.uni0E38" x="392" y="-244"/>
  <outline>
    <contour>
      <point x="277" y="-117" type="curve" smooth="yes" name="hr00"/>
      <point x="238" y="-117"/>
      <point x="204" y="-91"/>
      <point x="175" y="-67" type="curve"/>
      <point x="133" y="-101"/>
      <point x="86" y="-117"/>
      <point x="32" y="-117" type="curve"/>
      <point x="32" y="-167" type="line"/>
      <point x="86" y="-167"/>
      <point x="133" y="-151"/>
      <point x="175" y="-117" type="curve"/>
      <point x="203" y="-145"/>
      <point x="246" y="-167"/>
      <point x="286" y="-167" type="curve" smooth="yes"/>
      <point x="386" y="-167"/>
      <point x="392" y="-98"/>
      <point x="392" y="-67" type="curve" smooth="yes"/>
      <point x="392" y="300" type="line" smooth="yes"/>
      <point x="392" y="400"/>
      <point x="287" y="440"/>
      <point x="197" y="440" type="curve" smooth="yes"/>
      <point x="119" y="440"/>
      <point x="58" y="396"/>
      <point x="22" y="330" type="curve"/>
      <point x="22" y="329"/>
      <point x="37" y="317"/>
      <point x="52" y="305" type="curve" smooth="yes"/>
      <point x="61" y="298"/>
      <point x="71" y="289"/>
      <point x="82" y="280" type="curve"/>
      <point x="68" y="259"/>
      <point x="62" y="224"/>
      <point x="62" y="200" type="curve" smooth="yes"/>
      <point x="62" y="70" type="line" smooth="yes"/>
      <point x="62" y="59"/>
      <point x="63" y="51"/>
      <point x="52" y="50" type="curve"/>
      <point x="22" y="50" type="line"/>
      <point x="22" y="-0" type="line"/>
      <point x="62" y="-0" type="line" smooth="yes"/>
      <point x="102" y="-0"/>
      <point x="122" y="19"/>
      <point x="122" y="70" type="curve" smooth="yes"/>
      <point x="122" y="200" type="line" smooth="yes"/>
      <point x="122" y="224"/>
      <point x="126" y="260"/>
      <point x="142" y="280" type="curve"/>
      <point x="82" y="330" type="line"/>
      <point x="109" y="367"/>
      <point x="151" y="390"/>
      <point x="197" y="390" type="curve" smooth="yes"/>
      <point x="257" y="390"/>
      <point x="332" y="371"/>
      <point x="332" y="280" type="curve" smooth="yes"/>
      <point x="332" y="-57" type="line" smooth="yes"/>
      <point x="332" y="-98"/>
      <point x="320" y="-117"/>
    </contour>
    <contour>
      <point x="392" y="-244" type="move" name="b.uni0E38"/>
    </contour>
  </outline>
</glyph>
<glyph name="uni0E0F" format="1">
  <advance width="429"/>
  <unicode hex="0E0F"/>
    <anchor name="b.uni0E38" x="392" y="-244"/>
  <outline>
    <contour>
      <point x="122" y="70" type="curve" smooth="yes" name="hr00"/>
      <point x="122" y="200" type="line" smooth="yes"/>
      <point x="122" y="224"/>
      <point x="126" y="260"/>
      <point x="142" y="280" type="curve"/>
      <point x="82" y="330" type="line"/>
      <point x="109" y="367"/>
      <point x="151" y="390"/>
      <point x="197" y="390" type="curve" smooth="yes"/>
      <point x="257" y="390"/>
      <point x="332" y="371"/>
      <point x="332" y="280" type="curve" smooth="yes"/>
      <point x="332" y="-66" type="line" smooth="yes"/>
      <point x="332" y="-87"/>
      <point x="323" y="-117"/>
      <point x="282" y="-117" type="curve" smooth="yes"/>
      <point x="242" y="-117"/>
      <point x="214" y="-72"/>
      <point x="211" y="-67" type="curve"/>
      <point x="176" y="-117" type="line"/>
      <point x="138" y="-67" type="line"/>
      <point x="110" y="-90"/>
      <point x="69" y="-117"/>
      <point x="32" y="-117" type="curve"/>
      <point x="32" y="-166" type="line"/>
      <point x="69" y="-166"/>
      <point x="110" y="-140"/>
      <point x="138" y="-117" type="curve"/>
      <point x="176" y="-167" type="line"/>
      <point x="211" y="-117" type="line"/>
      <point x="219" y="-126"/>
      <point x="227" y="-135"/>
      <point x="236" y="-142" type="curve" smooth="yes"/>
      <point x="251" y="-155"/>
      <point x="271" y="-167"/>
      <point x="292" y="-167" type="curve" smooth="yes"/>
      <point x="392" y="-167"/>
      <point x="392" y="-86"/>
      <point x="392" y="-57" type="curve" smooth="yes"/>
      <point x="392" y="300" type="line" smooth="yes"/>
      <point x="392" y="400"/>
      <point x="287" y="440"/>
      <point x="197" y="440" type="curve" smooth="yes"/>
      <point x="119" y="440"/>
      <point x="58" y="396"/>
      <point x="22" y="330" type="curve"/>
      <point x="22" y="329"/>
      <point x="37" y="317"/>
      <point x="52" y="305" type="curve" smooth="yes"/>
      <point x="61" y="298"/>
      <point x="71" y="289"/>
      <point x="82" y="280" type="curve"/>
      <point x="68" y="259"/>
      <point x="62" y="224"/>
      <point x="62" y="200" type="curve" smooth="yes"/>
      <point x="62" y="70" type="line" smooth="yes"/>
      <point x="62" y="59"/>
      <point x="63" y="51"/>
      <point x="52" y="50" type="curve"/>
      <point x="22" y="50" type="line"/>
      <point x="22" y="-0" type="line"/>
      <point x="62" y="-0" type="line" smooth="yes"/>
      <point x="102" y="-0"/>
      <point x="122" y="19"/>
    </contour>
    <contour>
      <point x="392" y="-244" type="move" name="b.uni0E38"/>
    </contour>
  </outline>
</glyph>
<glyph name="uni0E10" format="1">
  <advance width="414"/>
  <unicode hex="0E10"/>
  <outline>
    <contour>
      <point x="152" y="-0" type="line" name="hr00"/>
      <point x="202" y="-0" type="line" smooth="yes"/>
      <point x="322" y="-0"/>
      <point x="392" y="100"/>
      <point x="392" y="225" type="curve" smooth="yes"/>
      <point x="392" y="296"/>
      <point x="362" y="360"/>
      <point x="309" y="400" type="curve"/>
      <point x="345" y="410"/>
      <point x="392" y="437"/>
      <point x="392" y="490" type="curve"/>
      <point x="332" y="490" type="line"/>
      <point x="332" y="454"/>
      <point x="290" y="434"/>
      <point x="262" y="426" type="curve"/>
      <point x="237" y="435"/>
      <point x="211" y="440"/>
      <point x="182" y="440" type="curve" smooth="yes"/>
      <point x="116" y="440"/>
      <point x="49" y="414"/>
      <point x="22" y="350" type="curve"/>
      <point x="42" y="300" type="line"/>
      <point x="68" y="354"/>
      <point x="121" y="390"/>
      <point x="182" y="390" type="curve" smooth="yes"/>
      <point x="252" y="390"/>
      <point x="332" y="340"/>
      <point x="332" y="225" type="curve" smooth="yes"/>
      <point x="332" y="140"/>
      <point x="290" y="50"/>
      <point x="202" y="50" type="curve"/>
      <point x="162" y="190" type="line"/>
      <point x="154" y="210"/>
      <point x="143" y="220"/>
      <point x="112" y="220" type="curve" smooth="yes"/>
      <point x="72" y="220" type="line"/>
      <point x="72" y="170" type="line"/>
      <point x="92" y="170" type="line"/>
      <point x="94" y="170"/>
      <point x="95" y="170"/>
      <point x="97" y="170" type="curve"/>
      <point x="105" y="170"/>
      <point x="109" y="169"/>
      <point x="112" y="160" type="curve"/>
    </contour>
    <contour>
      <point x="312" y="-68" type="line"/>
      <point x="312" y="-118" type="line" smooth="yes"/>
      <point x="312" y="-128"/>
      <point x="312" y="-158"/>
      <point x="272" y="-158" type="curve" smooth="yes"/>
      <point x="233" y="-158"/>
      <point x="202" y="-111"/>
      <point x="202" y="-108" type="curve"/>
      <point x="167" y="-158" type="line"/>
      <point x="132" y="-108" type="line"/>
      <point x="106" y="-141"/>
      <point x="75" y="-158"/>
      <point x="32" y="-158" type="curve"/>
      <point x="32" y="-208" type="line"/>
      <point x="75" y="-208"/>
      <point x="106" y="-191"/>
      <point x="132" y="-158" type="curve"/>
      <point x="167" y="-208" type="line"/>
      <point x="202" y="-158" type="line"/>
      <point x="220" y="-190"/>
      <point x="244" y="-208"/>
      <point x="282" y="-208" type="curve" smooth="yes"/>
      <point x="372" y="-208"/>
      <point x="372" y="-129"/>
      <point x="372" y="-118" type="curve" smooth="yes"/>
      <point x="372" y="-68" type="line"/>
    </contour>
  </outline>
</glyph>
<glyph name="uni0E11" format="1">
  <advance width="439"/>
  <unicode hex="0E11"/>
  <outline>
    <contour>
      <point x="112" y="0" type="line" name="hr00"/>
      <point x="112" y="114" type="line"/>
      <point x="112" y="130" type="line" smooth="yes"/>
      <point x="112" y="188"/>
      <point x="169" y="380"/>
      <point x="272" y="380" type="curve" smooth="yes"/>
      <point x="312" y="380"/>
      <point x="342" y="340"/>
      <point x="342" y="260" type="curve" smooth="yes"/>
      <point x="342" y="0" type="line"/>
      <point x="402" y="0" type="line"/>
      <point x="402" y="290" type="line" smooth="yes"/>
      <point x="402" y="360"/>
      <point x="351" y="440"/>
      <point x="282" y="440" type="curve" smooth="yes"/>
      <point x="251" y="440"/>
      <point x="227" y="425"/>
      <point x="211" y="410" type="curve" smooth="yes"/>
      <point x="201" y="401"/>
      <point x="193" y="391"/>
      <point x="186" y="380" type="curve"/>
      <point x="186" y="420"/>
      <point x="151" y="440"/>
      <point x="122" y="440" type="curve" smooth="yes"/>
      <point x="107" y="440"/>
      <point x="94" y="432"/>
      <point x="83" y="425" type="curve" smooth="yes"/>
      <point x="77" y="420"/>
      <point x="72" y="415"/>
      <point x="67" y="410" type="curve"/>
      <point x="52" y="425" type="line"/>
      <point x="43" y="432"/>
      <point x="31" y="440"/>
      <point x="22" y="440" type="curve"/>
      <point x="22" y="391" type="line"/>
      <point x="33" y="391"/>
      <point x="41" y="383"/>
      <point x="49" y="375" type="curve" smooth="yes"/>
      <point x="53" y="370"/>
      <point x="57" y="365"/>
      <point x="62" y="360" type="curve"/>
      <point x="67" y="365"/>
      <point x="71" y="370"/>
      <point x="76" y="375" type="curve" smooth="yes"/>
      <point x="84" y="382"/>
      <point x="94" y="390"/>
      <point x="102" y="390" type="curve" smooth="yes"/>
      <point x="117" y="390"/>
      <point x="132" y="380"/>
      <point x="132" y="360" type="curve" smooth="yes"/>
      <point x="132" y="321"/>
      <point x="52" y="250"/>
      <point x="52" y="106" type="curve" smooth="yes"/>
      <point x="52" y="0" type="line"/>
    </contour>
  </outline>
</glyph>
<glyph name="uni0E12" format="1">
  <advance width="689"/>
  <unicode hex="0E12"/>
    <anchor name="b.uni0E38" x="626" y="-75"/>
  <outline>
    <contour>
      <point x="592" y="430" type="line" name="hr00"/>
      <point x="592" y="170" type="line" smooth="yes"/>
      <point x="592" y="90"/>
      <point x="582" y="50"/>
      <point x="502" y="50" type="curve" smooth="yes"/>
      <point x="458" y="50"/>
      <point x="417" y="75"/>
      <point x="392" y="110" type="curve"/>
      <point x="392" y="308" type="line" smooth="yes"/>
      <point x="392" y="377"/>
      <point x="341" y="440"/>
      <point x="272" y="440" type="curve" smooth="yes"/>
      <point x="254" y="440"/>
      <point x="223" y="405"/>
      <point x="212" y="390" type="curve"/>
      <point x="204" y="399"/>
      <point x="196" y="408"/>
      <point x="189" y="415" type="curve" smooth="yes"/>
      <point x="176" y="427"/>
      <point x="163" y="440"/>
      <point x="152" y="440" type="curve" smooth="yes"/>
      <point x="83" y="440"/>
      <point x="22" y="378"/>
      <point x="22" y="220" type="curve" smooth="yes"/>
      <point x="22" y="90"/>
      <point x="82" y="-8"/>
      <point x="192" y="-8" type="curve" smooth="yes"/>
      <point x="207" y="-8"/>
      <point x="215" y="-7"/>
      <point x="222" y="-4" type="curve" smooth="yes"/>
      <point x="225" y="-3"/>
      <point x="229" y="-1"/>
      <point x="232" y="-0" type="curve"/>
      <point x="232" y="50" type="line"/>
      <point x="229" y="48"/>
      <point x="225" y="46"/>
      <point x="222" y="45" type="curve" smooth="yes"/>
      <point x="215" y="42"/>
      <point x="207" y="40"/>
      <point x="192" y="40" type="curve" smooth="yes"/>
      <point x="112" y="40"/>
      <point x="82" y="120"/>
      <point x="82" y="220" type="curve" smooth="yes"/>
      <point x="82" y="350"/>
      <point x="122" y="390"/>
      <point x="152" y="390" type="curve" smooth="yes"/>
      <point x="163" y="390"/>
      <point x="176" y="375"/>
      <point x="189" y="360" type="curve" smooth="yes"/>
      <point x="196" y="351"/>
      <point x="204" y="341"/>
      <point x="212" y="330" type="curve"/>
      <point x="222" y="346"/>
      <point x="254" y="390"/>
      <point x="272" y="390" type="curve" smooth="yes"/>
      <point x="309" y="390"/>
      <point x="332" y="351"/>
      <point x="332" y="308" type="curve" smooth="yes"/>
      <point x="332" y="-0" type="line"/>
      <point x="392" y="-0" type="line"/>
      <point x="392" y="60" type="line"/>
      <point x="420" y="14"/>
      <point x="480" y="-8"/>
      <point x="532" y="-8" type="curve" smooth="yes"/>
      <point x="623" y="-8"/>
      <point x="652" y="71"/>
      <point x="652" y="140" type="curve" smooth="yes"/>
      <point x="652" y="430" type="line"/>
    </contour>
    <contour>
      <point x="626" y="-75" type="move" name="b.uni0E38"/>
    </contour>
  </outline>
</glyph>
<glyph name="uni0E14" format="1">
  <advance width="429"/>
  <unicode hex="0E14"/>
  <outline>
    <contour>
      <point x="232" y="-0" type="curve" name="hr00"/>
      <point x="232" y="50" type="line"/>
      <point x="229" y="48"/>
      <point x="226" y="46"/>
      <point x="223" y="45" type="curve" smooth="yes"/>
      <point x="216" y="42"/>
      <point x="206" y="40"/>
      <point x="192" y="40" type="curve" smooth="yes"/>
      <point x="112" y="40"/>
      <point x="82" y="120"/>
      <point x="82" y="220" type="curve" smooth="yes"/>
      <point x="82" y="337"/>
      <point x="152" y="390"/>
      <point x="212" y="390" type="curve" smooth="yes"/>
      <point x="272" y="390"/>
      <point x="332" y="360"/>
      <point x="332" y="300" type="curve" smooth="yes"/>
      <point x="332" y="-0" type="line"/>
      <point x="392" y="-0" type="line"/>
      <point x="392" y="300" type="line" smooth="yes"/>
      <point x="392" y="400"/>
      <point x="302" y="440"/>
      <point x="212" y="440" type="curve" smooth="yes"/>
      <point x="121" y="440"/>
      <point x="22" y="380"/>
      <point x="22" y="220" type="curve" smooth="yes"/>
      <point x="22" y="80"/>
      <point x="92" y="-8"/>
      <point x="192" y="-8" type="curve" smooth="yes"/>
      <point x="207" y="-8"/>
      <point x="216" y="-7"/>
      <point x="223" y="-4" type="curve" smooth="yes"/>
      <point x="226" y="-3"/>
      <point x="229" y="-1"/>
    </contour>
  </outline>
</glyph>
<glyph name="uni0E15" format="1">
  <advance width="429"/>
  <unicode hex="0E15"/>
  <outline>
    <contour>
      <point x="232" y="-0" type="curve" name="hr00"/>
      <point x="232" y="50" type="line"/>
      <point x="229" y="48"/>
      <point x="225" y="46"/>
      <point x="222" y="45" type="curve" smooth="yes"/>
      <point x="215" y="42"/>
      <point x="207" y="40"/>
      <point x="192" y="40" type="curve" smooth="yes"/>
      <point x="112" y="40"/>
      <point x="82" y="120"/>
      <point x="82" y="220" type="curve" smooth="yes"/>
      <point x="82" y="350"/>
      <point x="124" y="390"/>
      <point x="152" y="390" type="curve" smooth="yes"/>
      <point x="163" y="390"/>
      <point x="176" y="375"/>
      <point x="189" y="360" type="curve" smooth="yes"/>
      <point x="196" y="351"/>
      <point x="204" y="341"/>
      <point x="212" y="330" type="curve"/>
      <point x="222" y="346"/>
      <point x="254" y="390"/>
      <point x="272" y="390" type="curve" smooth="yes"/>
      <point x="302" y="390"/>
      <point x="332" y="350"/>
      <point x="332" y="308" type="curve" smooth="yes"/>
      <point x="332" y="-0" type="line"/>
      <point x="392" y="-0" type="line"/>
      <point x="392" y="308" type="line" smooth="yes"/>
      <point x="392" y="377"/>
      <point x="332" y="440"/>
      <point x="272" y="440" type="curve" smooth="yes"/>
      <point x="248" y="440"/>
      <point x="224" y="409"/>
      <point x="212" y="390" type="curve"/>
      <point x="200" y="409"/>
      <point x="176" y="440"/>
      <point x="152" y="440" type="curve" smooth="yes"/>
      <point x="83" y="440"/>
      <point x="22" y="378"/>
      <point x="22" y="220" type="curve" smooth="yes"/>
      <point x="22" y="90"/>
      <point x="82" y="-8"/>
      <point x="192" y="-8" type="curve" smooth="yes"/>
      <point x="207" y="-8"/>
      <point x="215" y="-7"/>
      <point x="222" y="-4" type="curve" smooth="yes"/>
      <point x="225" y="-3"/>
      <point x="229" y="-1"/>
    </contour>
  </outline>
</glyph>
<glyph name="uni0E17" format="1">
  <advance width="424"/>
  <unicode hex="0E17"/>
  <outline>
    <contour>
      <point x="97" y="-0" type="line" name="hr00"/>
      <point x="97" y="320" type="line"/>
      <point x="130" y="353"/>
      <point x="168" y="380"/>
      <point x="217" y="380" type="curve" smooth="yes"/>
      <point x="297" y="380"/>
      <point x="327" y="340"/>
      <point x="327" y="260" type="curve" smooth="yes"/>
      <point x="327" y="-0" type="line"/>
      <point x="387" y="-0" type="line"/>
      <point x="387" y="290" type="line" smooth="yes"/>
      <point x="387" y="360"/>
      <point x="338" y="440"/>
      <point x="247" y="440" type="curve" smooth="yes"/>
      <point x="191" y="440"/>
      <point x="132" y="415"/>
      <point x="97" y="370" type="curve"/>
      <point x="97" y="430" type="line"/>
      <point x="37" y="430" type="line"/>
      <point x="37" y="-0" type="line"/>
    </contour>
  </outline>
</glyph>
<glyph name="uni0E19" format="1">
  <advance width="424"/>
  <unicode hex="0E19"/>
  <outline>
    <contour>
      <point x="327" y="430" type="line" name="hr00"/>
      <point x="327" y="110" type="line"/>
      <point x="294" y="77"/>
      <point x="256" y="50"/>
      <point x="207" y="50" type="curve" smooth="yes"/>
      <point x="127" y="50"/>
      <point x="97" y="90"/>
      <point x="97" y="170" type="curve" smooth="yes"/>
      <point x="97" y="430" type="line"/>
      <point x="37" y="430" type="line"/>
      <point x="37" y="140" type="line" smooth="yes"/>
      <point x="37" y="71"/>
      <point x="86" y="-8"/>
      <point x="177" y="-8" type="curve" smooth="yes"/>
      <point x="235" y="-8"/>
      <point x="290" y="16"/>
      <point x="327" y="60" type="curve"/>
      <point x="327" y="-0" type="line"/>
      <point x="387" y="-0" type="line"/>
      <point x="387" y="430" type="line"/>
    </contour>
  </outline>
</glyph>
<glyph name="uni0E1C" format="1">
  <advance width="500"/>
  <unicode hex="0E1C"/>
    <anchor name="b.uni0E38" x="376" y="-75"/>
  <outline>
    <contour>
      <point x="463" y="430" type="curve" name="hr00"/>
      <point x="403" y="430" type="line"/>
      <point x="399" y="350"/>
      <point x="383" y="175"/>
      <point x="343" y="100" type="curve"/>
      <point x="258" y="310" type="line"/>
      <point x="228" y="310" type="line"/>
      <point x="143" y="100" type="line"/>
      <point x="113" y="172"/>
      <point x="94" y="249"/>
      <point x="94" y="328" type="curve" smooth="yes"/>
      <point x="94" y="343"/>
      <point x="95" y="380"/>
      <point x="116" y="380" type="curve" smooth="yes"/>
      <point x="144" y="380" type="line"/>
      <point x="144" y="430" type="line"/>
      <point x="102" y="430" type="line" smooth="yes"/>
      <point x="46" y="430"/>
      <point x="37" y="371"/>
      <point x="37" y="329" type="curve" smooth="yes"/>
      <point x="37" y="222"/>
      <point x="70" y="99"/>
      <point x="113" y="-0" type="curve"/>
      <point x="153" y="-0" type="line"/>
      <point x="243" y="215" type="line"/>
      <point x="333" y="-0" type="line"/>
      <point x="373" y="-0" type="line"/>
      <point x="428" y="127"/>
      <point x="454" y="295"/>
    </contour>
    <contour>
      <point x="376" y="-75" type="move" name="b.uni0E38"/>
    </contour>
  </outline>
</glyph>
<glyph name="uni0E1D" format="1">
  <advance width="500"/>
  <unicode hex="0E1D"/>
    <anchor name="t.uni0E34" x="348" y="505"/>
    <anchor name="t.uni0E4D_1" x="356" y="505"/>
    <anchor name="t.uni0E31_2" x="392" y="505"/>
    <anchor name="t.uni0E47.sm_3" x="356" y="505"/>
    <anchor name="t.uni0E4C_4" x="296" y="505"/>
    <anchor name="t.uni0E4B_5" x="332" y="505"/>
    <anchor name="b.uni0E38" x="372" y="-75"/>
  <outline>
    <contour>
      <point x="463" y="570" type="curve" name="hr00"/>
      <point x="403" y="570" type="line"/>
      <point x="403" y="435"/>
      <point x="392" y="230"/>
      <point x="343" y="100" type="curve"/>
      <point x="258" y="310" type="line"/>
      <point x="228" y="310" type="line"/>
      <point x="143" y="100" type="line"/>
      <point x="113" y="172"/>
      <point x="94" y="249"/>
      <point x="94" y="328" type="curve" smooth="yes"/>
      <point x="94" y="343"/>
      <point x="95" y="380"/>
      <point x="116" y="380" type="curve" smooth="yes"/>
      <point x="144" y="380" type="line"/>
      <point x="144" y="430" type="line"/>
      <point x="102" y="430" type="line" smooth="yes"/>
      <point x="46" y="430"/>
      <point x="37" y="371"/>
      <point x="37" y="329" type="curve" smooth="yes"/>
      <point x="37" y="222"/>
      <point x="70" y="99"/>
      <point x="113" y="-0" type="curve"/>
      <point x="153" y="-0" type="line"/>
      <point x="243" y="215" type="line"/>
      <point x="333" y="-0" type="line"/>
      <point x="373" y="-0" type="line"/>
      <point x="443" y="168"/>
      <point x="463" y="392"/>
    </contour>
    <contour>
      <point x="348" y="505" type="move" name="t.uni0E34"/>
    </contour>
    <contour>
      <point x="356" y="505" type="move" name="t.uni0E4D_1"/>
    </contour>
    <contour>
      <point x="392" y="505" type="move" name="t.uni0E31_2"/>
    </contour>
    <contour>
      <point x="356" y="505" type="move" name="t.uni0E47.sm_3"/>
    </contour>
    <contour>
      <point x="296" y="505" type="move" name="t.uni0E4C_4"/>
    </contour>
    <contour>
      <point x="332" y="505" type="move" name="t.uni0E4B_5"/>
    </contour>
    <contour>
      <point x="372" y="-75" type="move" name="b.uni0E38"/>
    </contour>
  </outline>
</glyph>
<glyph name="uni0E1E" format="1">
  <advance width="522"/>
  <unicode hex="0E1E"/>
    <anchor name="b.uni0E38" x="396" y="-75"/>
  <outline>
    <contour>
      <point x="261" y="324" type="line" name="hr00"/>
      <point x="356" y="-0" type="line"/>
      <point x="393" y="-0" type="line"/>
      <point x="515" y="430" type="line"/>
      <point x="458" y="430" type="line"/>
      <point x="370" y="123" type="line"/>
      <point x="279" y="430" type="line"/>
      <point x="243" y="430" type="line"/>
      <point x="151" y="123" type="line"/>
      <point x="64" y="430" type="line"/>
      <point x="7" y="430" type="line"/>
      <point x="130" y="-0" type="line"/>
      <point x="167" y="-0" type="line"/>
    </contour>
    <contour>
      <point x="396" y="-75" type="move" name="b.uni0E38"/>
    </contour>
  </outline>
</glyph>
<glyph name="uni0E1F" format="1">
  <advance width="562"/>
  <unicode hex="0E1F"/>
    <anchor name="t.uni0E34" x="422" y="505"/>
    <anchor name="t.uni0E4D_1" x="436" y="505"/>
    <anchor name="t.uni0E31_2" x="436" y="505"/>
    <anchor name="t.uni0E47.sm_3" x="384" y="505"/>
    <anchor name="t.uni0E4C_4" x="360" y="505"/>
    <anchor name="t.uni0E4B_5" x="404" y="505"/>
    <anchor name="b.uni0E38" x="392" y="-75"/>
  <outline>
    <contour>
      <point x="261" y="324" type="line" name="hr00"/>
      <point x="356" y="-0" type="line"/>
      <point x="393" y="-0" type="line"/>
      <point x="555" y="570" type="line"/>
      <point x="498" y="570" type="line"/>
      <point x="370" y="123" type="line"/>
      <point x="279" y="430" type="line"/>
      <point x="243" y="430" type="line"/>
      <point x="151" y="123" type="line"/>
      <point x="64" y="430" type="line"/>
      <point x="7" y="430" type="line"/>
      <point x="130" y="-0" type="line"/>
      <point x="167" y="-0" type="line"/>
    </contour>
    <contour>
      <point x="422" y="505" type="move" name="t.uni0E34"/>
    </contour>
    <contour>
      <point x="436" y="505" type="move" name="t.uni0E4D_1"/>
    </contour>
    <contour>
      <point x="436" y="505" type="move" name="t.uni0E31_2"/>
    </contour>
    <contour>
      <point x="384" y="505" type="move" name="t.uni0E47.sm_3"/>
    </contour>
    <contour>
      <point x="360" y="505" type="move" name="t.uni0E4C_4"/>
    </contour>
    <contour>
      <point x="404" y="505" type="move" name="t.uni0E4B_5"/>
    </contour>
    <contour>
      <point x="392" y="-75" type="move" name="b.uni0E38"/>
    </contour>
  </outline>
</glyph>
<glyph name="uni0E21" format="1">
  <advance width="424"/>
  <unicode hex="0E21"/>
    <anchor name="b.uni0E38" x="343" y="-75"/>
  <outline>
    <contour>
      <point x="37" y="0" type="line" name="hr00"/>
      <point x="97" y="0" type="line"/>
      <point x="97" y="60" type="line"/>
      <point x="107" y="47"/>
      <point x="119" y="36"/>
      <point x="134" y="26" type="curve" smooth="yes"/>
      <point x="159" y="9"/>
      <point x="196" y="-8"/>
      <point x="247" y="-8" type="curve" smooth="yes"/>
      <point x="338" y="-8"/>
      <point x="387" y="71"/>
      <point x="387" y="140" type="curve" smooth="yes"/>
      <point x="387" y="430" type="line"/>
      <point x="327" y="430" type="line"/>
      <point x="327" y="170" type="line" smooth="yes"/>
      <point x="327" y="90"/>
      <point x="297" y="50"/>
      <point x="217" y="50" type="curve" smooth="yes"/>
      <point x="182" y="50"/>
      <point x="152" y="65"/>
      <point x="131" y="80" type="curve" smooth="yes"/>
      <point x="119" y="89"/>
      <point x="108" y="99"/>
      <point x="97" y="110" type="curve"/>
      <point x="97" y="430" type="line"/>
      <point x="37" y="430" type="line"/>
    </contour>
    <contour>
      <point x="343" y="-75" type="move" name="b.uni0E38"/>
    </contour>
  </outline>
</glyph>
<glyph name="uni0E22" format="1">
  <advance width="399"/>
  <unicode hex="0E22"/>
    <anchor name="b.uni0E38" x="303" y="-75"/>
  <outline>
    <contour>
      <point x="22" y="125" type="curve" smooth="yes" name="hr00"/>
      <point x="22" y="48"/>
      <point x="64" y="-8"/>
      <point x="190" y="-8" type="curve" smooth="yes"/>
      <point x="316" y="-8"/>
      <point x="362" y="70"/>
      <point x="362" y="147" type="curve" smooth="yes"/>
      <point x="362" y="430" type="line"/>
      <point x="302" y="430" type="line"/>
      <point x="302" y="143" type="line" smooth="yes"/>
      <point x="302" y="99"/>
      <point x="274" y="40"/>
      <point x="190" y="40" type="curve" smooth="yes"/>
      <point x="106" y="40"/>
      <point x="82" y="76"/>
      <point x="82" y="125" type="curve" smooth="yes"/>
      <point x="82" y="160"/>
      <point x="118" y="220"/>
      <point x="202" y="220" type="curve"/>
      <point x="202" y="270" type="line"/>
      <point x="138" y="270"/>
      <point x="92" y="297"/>
      <point x="92" y="340" type="curve" smooth="yes"/>
      <point x="92" y="367"/>
      <point x="111" y="390"/>
      <point x="142" y="390" type="curve" smooth="yes"/>
      <point x="162" y="390"/>
      <point x="176" y="388"/>
      <point x="187" y="385" type="curve" smooth="yes"/>
      <point x="193" y="383"/>
      <point x="198" y="381"/>
      <point x="202" y="380" type="curve"/>
      <point x="202" y="430" type="line"/>
      <point x="198" y="431"/>
      <point x="193" y="433"/>
      <point x="186" y="435" type="curve" smooth="yes"/>
      <point x="175" y="438"/>
      <point x="157" y="440"/>
      <point x="132" y="440" type="curve" smooth="yes"/>
      <point x="92" y="440"/>
      <point x="32" y="415"/>
      <point x="32" y="340" type="curve" smooth="yes"/>
      <point x="32" y="300"/>
      <point x="54" y="277"/>
      <point x="77" y="262" type="curve" smooth="yes"/>
      <point x="90" y="254"/>
      <point x="105" y="248"/>
      <point x="122" y="245" type="curve"/>
      <point x="103" y="240"/>
      <point x="87" y="232"/>
      <point x="72" y="221" type="curve" smooth="yes"/>
      <point x="47" y="202"/>
      <point x="22" y="172"/>
    </contour>
    <contour>
      <point x="303" y="-75" type="move" name="b.uni0E38"/>
    </contour>
  </outline>
</glyph>
<glyph name="uni0E24" format="1">
  <advance width="429"/>
  <unicode hex="0E24"/>
  <outline>
    <contour>
      <point x="122" y="70" type="curve" smooth="yes" name="hr00"/>
      <point x="122" y="200" type="line" smooth="yes"/>
      <point x="122" y="224"/>
      <point x="126" y="260"/>
      <point x="142" y="280" type="curve"/>
      <point x="82" y="330" type="line"/>
      <point x="109" y="367"/>
      <point x="151" y="390"/>
      <point x="197" y="390" type="curve" smooth="yes"/>
      <point x="257" y="390"/>
      <point x="332" y="371"/>
      <point x="332" y="280" type="curve" smooth="yes"/>
      <point x="332" y="-208" type="line"/>
      <point x="352" y="-208" type="line"/>
      <point x="359" y="-203"/>
      <point x="366" y="-198"/>
      <point x="372" y="-191" type="curve" smooth="yes"/>
      <point x="383" y="-180"/>
      <point x="392" y="-167"/>
      <point x="392" y="-148" type="curve" smooth="yes"/>
      <point x="392" y="300" type="line" smooth="yes"/>
      <point x="392" y="400"/>
      <point x="287" y="440"/>
      <point x="197" y="440" type="curve" smooth="yes"/>
      <point x="119" y="440"/>
      <point x="58" y="396"/>
      <point x="22" y="330" type="curve"/>
      <point x="22" y="329"/>
      <point x="37" y="317"/>
      <point x="52" y="305" type="curve" smooth="yes"/>
      <point x="61" y="298"/>
      <point x="71" y="289"/>
      <point x="82" y="280" type="curve"/>
      <point x="68" y="259"/>
      <point x="62" y="224"/>
      <point x="62" y="200" type="curve" smooth="yes"/>
      <point x="62" y="70" type="line" smooth="yes"/>
      <point x="62" y="19"/>
      <point x="82" y="-0"/>
      <point x="122" y="-0" type="curve" smooth="yes"/>
      <point x="162" y="-0" type="line"/>
      <point x="162" y="50" type="line"/>
      <point x="132" y="50" type="line"/>
      <point x="121" y="51"/>
      <point x="122" y="59"/>
    </contour>
  </outline>
</glyph>
<glyph name="uni0E27" format="1">
  <advance width="384"/>
  <unicode hex="0E27"/>
    <anchor name="b.uni0E38" x="303" y="-75"/>
  <outline>
    <contour>
      <point x="42" y="90" type="curve" name="hr00"/>
      <point x="22" y="40" type="line"/>
      <point x="29" y="31"/>
      <point x="39" y="23"/>
      <point x="51" y="16" type="curve" smooth="yes"/>
      <point x="72" y="4"/>
      <point x="106" y="-8"/>
      <point x="162" y="-8" type="curve" smooth="yes"/>
      <point x="271" y="-8"/>
      <point x="362" y="70"/>
      <point x="362" y="215" type="curve" smooth="yes"/>
      <point x="362" y="359"/>
      <point x="271" y="440"/>
      <point x="162" y="440" type="curve" smooth="yes"/>
      <point x="106" y="440"/>
      <point x="72" y="427"/>
      <point x="51" y="415" type="curve" smooth="yes"/>
      <point x="39" y="408"/>
      <point x="29" y="399"/>
      <point x="22" y="390" type="curve"/>
      <point x="42" y="340" type="line"/>
      <point x="50" y="347"/>
      <point x="60" y="354"/>
      <point x="72" y="360" type="curve" smooth="yes"/>
      <point x="92" y="371"/>
      <point x="122" y="380"/>
      <point x="162" y="380" type="curve" smooth="yes"/>
      <point x="242" y="380"/>
      <point x="302" y="320"/>
      <point x="302" y="215" type="curve" smooth="yes"/>
      <point x="302" y="110"/>
      <point x="242" y="40"/>
      <point x="162" y="40" type="curve" smooth="yes"/>
      <point x="122" y="40"/>
      <point x="92" y="52"/>
      <point x="72" y="65" type="curve" smooth="yes"/>
      <point x="60" y="72"/>
      <point x="50" y="81"/>
    </contour>
    <contour>
      <point x="303" y="-75" type="move" name="b.uni0E38"/>
    </contour>
  </outline>
</glyph>
<glyph name="uni0E28" format="1">
  <advance width="434"/>
  <unicode hex="0E28"/>
  <outline>
    <contour>
      <point x="97" y="180" type="curve" name="hr00"/>
      <point x="97" y="300" type="line" smooth="yes"/>
      <point x="97" y="360"/>
      <point x="157" y="390"/>
      <point x="217" y="390" type="curve" smooth="yes"/>
      <point x="277" y="390"/>
      <point x="337" y="360"/>
      <point x="337" y="300" type="curve" smooth="yes"/>
      <point x="337" y="-0" type="line"/>
      <point x="397" y="-0" type="line"/>
      <point x="397" y="300" type="line" smooth="yes"/>
      <point x="397" y="347"/>
      <point x="372" y="384"/>
      <point x="335" y="407" type="curve"/>
      <point x="366" y="422"/>
      <point x="397" y="446"/>
      <point x="397" y="490" type="curve"/>
      <point x="337" y="490" type="line"/>
      <point x="337" y="459"/>
      <point x="308" y="442"/>
      <point x="281" y="431" type="curve"/>
      <point x="261" y="437"/>
      <point x="240" y="440"/>
      <point x="217" y="440" type="curve" smooth="yes"/>
      <point x="127" y="440"/>
      <point x="37" y="391"/>
      <point x="37" y="300" type="curve" smooth="yes"/>
      <point x="37" y="-0" type="line"/>
      <point x="97" y="-0" type="line"/>
      <point x="97" y="130" type="line"/>
      <point x="126" y="159"/>
      <point x="166" y="180"/>
      <point x="207" y="180" type="curve"/>
      <point x="207" y="240" type="line"/>
      <point x="164" y="240"/>
      <point x="123" y="212"/>
    </contour>
  </outline>
</glyph>
<glyph name="uni0E2A" format="1">
  <advance width="389"/>
  <unicode hex="0E2A"/>
  <outline>
    <contour>
      <point x="352" y="-0" type="line" name="hr00"/>
      <point x="352" y="270" type="line" smooth="yes"/>
      <point x="352" y="336"/>
      <point x="334" y="383"/>
      <point x="297" y="411" type="curve"/>
      <point x="326" y="426"/>
      <point x="352" y="450"/>
      <point x="352" y="490" type="curve"/>
      <point x="292" y="490" type="line"/>
      <point x="292" y="463"/>
      <point x="268" y="445"/>
      <point x="244" y="434" type="curve"/>
      <point x="228" y="438"/>
      <point x="211" y="440"/>
      <point x="192" y="440" type="curve" smooth="yes"/>
      <point x="124" y="440"/>
      <point x="64" y="410"/>
      <point x="32" y="350" type="curve"/>
      <point x="52" y="300" type="line"/>
      <point x="81" y="349"/>
      <point x="133" y="390"/>
      <point x="192" y="390" type="curve" smooth="yes"/>
      <point x="264" y="390"/>
      <point x="292" y="340"/>
      <point x="292" y="286" type="curve" smooth="yes"/>
      <point x="292" y="260" type="line"/>
      <point x="278" y="241"/>
      <point x="211" y="240"/>
      <point x="192" y="240" type="curve" smooth="yes"/>
      <point x="112" y="240"/>
      <point x="22" y="209"/>
      <point x="22" y="110" type="curve" smooth="yes"/>
      <point x="22" y="30"/>
      <point x="71" y="-8"/>
      <point x="162" y="-8" type="curve" smooth="yes"/>
      <point x="177" y="-8"/>
      <point x="189" y="-7"/>
      <point x="198" y="-4" type="curve" smooth="yes"/>
      <point x="203" y="-3"/>
      <point x="208" y="-1"/>
      <point x="212" y="-0" type="curve"/>
      <point x="212" y="50" type="line"/>
      <point x="208" y="48"/>
      <point x="203" y="46"/>
      <point x="198" y="45" type="curve" smooth="yes"/>
      <point x="188" y="42"/>
      <point x="176" y="40"/>
      <point x="162" y="40" type="curve" smooth="yes"/>
      <point x="122" y="40"/>
      <point x="82" y="60"/>
      <point x="82" y="110" type="curve" smooth="yes"/>
      <point x="82" y="170"/>
      <point x="152" y="190"/>
      <point x="192" y="190" type="curve" smooth="yes"/>
      <point x="218" y="190"/>
      <point x="270" y="192"/>
      <point x="292" y="210" type="curve"/>
      <point x="292" y="-0" type="line"/>
    </contour>
  </outline>
</glyph>
<glyph name="uni0E2B" format="1">
  <advance width="404"/>
  <unicode hex="0E2B"/>
  <outline>
    <contour>
      <point x="97" y="240" type="line" name="hr00"/>
      <point x="97" y="430" type="line"/>
      <point x="37" y="430" type="line"/>
      <point x="37" y="-0" type="line"/>
      <point x="97" y="-0" type="line"/>
      <point x="97" y="160" type="line"/>
      <point x="190" y="255" type="line"/>
      <point x="219" y="250"/>
      <point x="307" y="219"/>
      <point x="307" y="106" type="curve" smooth="yes"/>
      <point x="307" y="-0" type="line"/>
      <point x="367" y="-0" type="line"/>
      <point x="367" y="120" type="line" smooth="yes"/>
      <point x="367" y="241"/>
      <point x="275" y="275"/>
      <point x="222" y="286" type="curve"/>
      <point x="366" y="430" type="line"/>
      <point x="287" y="430" type="line"/>
    </contour>
  </outline>
</glyph>
<glyph name="uni0E2C" format="1">
  <advance width="562"/>
  <unicode hex="0E2C"/>
    <anchor name="t.uni0E34" x="402" y="505"/>
    <anchor name="t.uni0E4D_1" x="384" y="505"/>
    <anchor name="t.uni0E31_2" x="408" y="505"/>
    <anchor name="t.uni0E47.sm_3" x="368" y="505"/>
    <anchor name="t.uni0E4C_4" x="336" y="505"/>
    <anchor name="t.uni0E4B_5" x="324" y="505"/>
    <anchor name="b.uni0E38" x="388" y="-75"/>
  <outline>
    <contour>
      <point x="261" y="324" type="line" name="hr00"/>
      <point x="356" y="-0" type="line"/>
      <point x="393" y="-0" type="line"/>
      <point x="497" y="364" type="line" smooth="yes"/>
      <point x="499" y="371"/>
      <point x="500" y="377"/>
      <point x="500" y="384" type="curve" smooth="yes"/>
      <point x="500" y="409"/>
      <point x="485" y="428"/>
      <point x="470" y="441" type="curve" smooth="yes"/>
      <point x="461" y="448"/>
      <point x="451" y="455"/>
      <point x="440" y="460" type="curve"/>
      <point x="500" y="469"/>
      <point x="555" y="502"/>
      <point x="555" y="570" type="curve"/>
      <point x="498" y="570" type="line"/>
      <point x="498" y="510"/>
      <point x="431" y="474"/>
      <point x="380" y="460" type="curve"/>
      <point x="411" y="449"/>
      <point x="443" y="422"/>
      <point x="443" y="387" type="curve" smooth="yes"/>
      <point x="443" y="380"/>
      <point x="442" y="371"/>
      <point x="439" y="363" type="curve"/>
      <point x="370" y="123" type="line"/>
      <point x="279" y="430" type="line"/>
      <point x="243" y="430" type="line"/>
      <point x="151" y="123" type="line"/>
      <point x="64" y="430" type="line"/>
      <point x="7" y="430" type="line"/>
      <point x="130" y="-0" type="line"/>
      <point x="167" y="-0" type="line"/>
    </contour>
    <contour>
      <point x="402" y="505" type="move" name="t.uni0E34"/>
    </contour>
    <contour>
      <point x="384" y="505" type="move" name="t.uni0E4D_1"/>
    </contour>
    <contour>
      <point x="408" y="505" type="move" name="t.uni0E31_2"/>
    </contour>
    <contour>
      <point x="368" y="505" type="move" name="t.uni0E47.sm_3"/>
    </contour>
    <contour>
      <point x="336" y="505" type="move" name="t.uni0E4C_4"/>
    </contour>
    <contour>
      <point x="324" y="505" type="move" name="t.uni0E4B_5"/>
    </contour>
    <contour>
      <point x="388" y="-75" type="move" name="b.uni0E38"/>
    </contour>
  </outline>
</glyph>
<glyph name="uni0E2D" format="1">
  <advance width="424"/>
  <unicode hex="0E2D"/>
    <anchor name="b.uni0E38" x="303" y="-75"/>
  <outline>
    <contour>
      <point x="22" y="300" type="curve" name="hr00"/>
      <point x="81" y="300" type="line"/>
      <point x="98" y="358"/>
      <point x="147" y="390"/>
      <point x="207" y="390" type="curve" smooth="yes"/>
      <point x="292" y="390"/>
      <point x="342" y="316"/>
      <point x="342" y="215" type="curve" smooth="yes"/>
      <point x="342" y="110"/>
      <point x="302" y="40"/>
      <point x="207" y="40" type="curve" smooth="yes"/>
      <point x="111" y="40"/>
      <point x="82" y="99"/>
      <point x="82" y="155" type="curve" smooth="yes"/>
      <point x="82" y="165"/>
      <point x="87" y="170"/>
      <point x="97" y="170" type="curve" smooth="yes"/>
      <point x="162" y="170" type="line"/>
      <point x="162" y="220" type="line"/>
      <point x="72" y="220" type="line" smooth="yes"/>
      <point x="32" y="220"/>
      <point x="22" y="199"/>
      <point x="22" y="155" type="curve" smooth="yes"/>
      <point x="22" y="50"/>
      <point x="102" y="-8"/>
      <point x="207" y="-8" type="curve" smooth="yes"/>
      <point x="312" y="-8"/>
      <point x="402" y="60"/>
      <point x="402" y="215" type="curve" smooth="yes"/>
      <point x="402" y="316"/>
      <point x="352" y="440"/>
      <point x="207" y="440" type="curve" smooth="yes"/>
      <point x="114" y="440"/>
      <point x="40" y="393"/>
    </contour>
    <contour>
      <point x="303" y="-75" type="move" name="b.uni0E38"/>
    </contour>
  </outline>
</glyph>
<glyph name="uni0E32" format="1">
  <advance width="339"/>
  <unicode hex="0E32"/>
  <outline>
    <contour>
      <point x="22" y="400" type="curve" name="hr00"/>
      <point x="22" y="350" type="line"/>
      <point x="29" y="357"/>
      <point x="38" y="364"/>
      <point x="49" y="370" type="curve" smooth="yes"/>
      <point x="66" y="381"/>
      <point x="91" y="390"/>
      <point x="122" y="390" type="curve" smooth="yes"/>
      <point x="185" y="390"/>
      <point x="242" y="354"/>
      <point x="242" y="270" type="curve" smooth="yes"/>
      <point x="242" y="-0" type="line"/>
      <point x="302" y="-0" type="line"/>
      <point x="302" y="280" type="line" smooth="yes"/>
      <point x="302" y="391"/>
      <point x="209" y="440"/>
      <point x="132" y="440" type="curve" smooth="yes"/>
      <point x="91" y="440"/>
      <point x="53" y="427"/>
    </contour>
  </outline>
</glyph>
<glyph name="uni0E33" format="1">
  <advance width="339"/>
  <unicode hex="0E33"/>
  <outline>
    <contour>
      <point x="-145" y="585" type="curve" smooth="yes" name="hr00"/>
      <point x="-145" y="601"/>
      <point x="-132" y="615"/>
      <point x="-115" y="615" type="curve" smooth="yes"/>
      <point x="-99" y="615"/>
      <point x="-85" y="601"/>
      <point x="-85" y="585" type="curve" smooth="yes"/>
      <point x="-85" y="568"/>
      <point x="-99" y="555"/>
      <point x="-115" y="555" type="curve" smooth="yes"/>
      <point x="-132" y="555"/>
      <point x="-145" y="568"/>
    </contour>
    <contour>
      <point x="22" y="350" type="line"/>
      <point x="29" y="357"/>
      <point x="38" y="364"/>
      <point x="49" y="370" type="curve" smooth="yes"/>
      <point x="66" y="381"/>
      <point x="91" y="390"/>
      <point x="122" y="390" type="curve" smooth="yes"/>
      <point x="185" y="390"/>
      <point x="242" y="354"/>
      <point x="242" y="270" type="curve" smooth="yes"/>
      <point x="242" y="-0" type="line"/>
      <point x="302" y="-0" type="line"/>
      <point x="302" y="280" type="line" smooth="yes"/>
      <point x="302" y="391"/>
      <point x="209" y="440"/>
      <point x="132" y="440" type="curve" smooth="yes"/>
      <point x="91" y="440"/>
      <point x="53" y="427"/>
      <point x="22" y="400" type="curve"/>
    </contour>
    <contour>
      <point x="-195" y="585" type="curve" smooth="yes"/>
      <point x="-195" y="541"/>
      <point x="-159" y="505"/>
      <point x="-115" y="505" type="curve" smooth="yes"/>
      <point x="-71" y="505"/>
      <point x="-35" y="541"/>
      <point x="-35" y="585" type="curve" smooth="yes"/>
      <point x="-35" y="629"/>
      <point x="-71" y="665"/>
      <point x="-115" y="665" type="curve" smooth="yes"/>
      <point x="-159" y="665"/>
      <point x="-195" y="629"/>
    </contour>
  </outline>
</glyph>
<glyph name="uni0E34" format="1">
  <advance width="0"/>
  <unicode hex="0E34"/>
    <anchor name="_t.uni0E34" x="-59" y="505"/>
    <anchor name="t.uni0E4B" x="-59" y="630"/>
  <outline>
    <contour>
      <point x="-57" y="505" type="line" name="hr00"/>
      <point x="-57" y="555" type="line"/>
      <point x="-317" y="555" type="line"/>
      <point x="-337" y="505" type="line"/>
    </contour>
    <contour>
      <point x="-59" y="505" type="move" name="_t.uni0E34"/>
    </contour>
    <contour>
      <point x="-59" y="630" type="move" name="t.uni0E4B"/>
    </contour>
  </outline>
</glyph>
<glyph name="uni0E36" format="1">
  <advance width="0"/>
  <unicode hex="0E36"/>
    <anchor name="_t.uni0E34" x="-59" y="505"/>
    <anchor name="t.uni0E4B" x="-59" y="660"/>
  <outline>
    <contour>
      <point x="-137" y="570" type="curve" smooth="yes" name="hr00"/>
      <point x="-137" y="578"/>
      <point x="-130" y="585"/>
      <point x="-122" y="585" type="curve" smooth="yes"/>
      <point x="-114" y="585"/>
      <point x="-107" y="578"/>
      <point x="-107" y="570" type="curve" smooth="yes"/>
      <point x="-107" y="562"/>
      <point x="-114" y="555"/>
      <point x="-122" y="555" type="curve" smooth="yes"/>
      <point x="-130" y="555"/>
      <point x="-137" y="562"/>
    </contour>
    <contour>
      <point x="-122" y="505" type="line"/>
      <point x="-86" y="505"/>
      <point x="-57" y="534"/>
      <point x="-57" y="570" type="curve" smooth="yes"/>
      <point x="-57" y="606"/>
      <point x="-86" y="635"/>
      <point x="-122" y="635" type="curve" smooth="yes"/>
      <point x="-158" y="635"/>
      <point x="-187" y="606"/>
      <point x="-187" y="570" type="curve" smooth="yes"/>
      <point x="-187" y="567"/>
      <point x="-186" y="562"/>
      <point x="-185" y="555" type="curve"/>
      <point x="-317" y="555" type="line"/>
      <point x="-337" y="505" type="line"/>
    </contour>
    <contour>
      <point x="-59" y="505" type="move" name="_t.uni0E34"/>
    </contour>
    <contour>
      <point x="-59" y="660" type="move" name="t.uni0E4B"/>
    </contour>
  </outline>
</glyph>
<glyph name="uni0E37" format="1">
  <advance width="0"/>
  <unicode hex="0E37"/>
    <anchor name="_t.uni0E34" x="-59" y="505"/>
    <anchor name="t.uni0E4B" x="-59" y="660"/>
  <outline>
    <contour>
      <point x="-57" y="505" type="line" name="hr00"/>
      <point x="-57" y="615" type="line"/>
      <point x="-117" y="615" type="line"/>
      <point x="-117" y="555" type="line"/>
      <point x="-147" y="555" type="line"/>
      <point x="-147" y="615" type="line"/>
      <point x="-197" y="615" type="line"/>
      <point x="-197" y="555" type="line"/>
      <point x="-317" y="555" type="line"/>
      <point x="-337" y="505" type="line"/>
    </contour>
    <contour>
      <point x="-59" y="505" type="move" name="_t.uni0E34"/>
    </contour>
    <contour>
      <point x="-59" y="660" type="move" name="t.uni0E4B"/>
    </contour>
  </outline>
</glyph>
<glyph name="uni0E3F" format="1">
  <advance width="384"/>
  <unicode hex="0E3F"/>
  <outline>
    <contour>
      <point x="162" y="235" type="line" name="hr00"/>
      <point x="242" y="235"/>
      <point x="287" y="199"/>
      <point x="287" y="140" type="curve" smooth="yes"/>
      <point x="287" y="89"/>
      <point x="240" y="50"/>
      <point x="173" y="50" type="curve" smooth="yes"/>
      <point x="97" y="50" type="line"/>
      <point x="97" y="235" type="line"/>
    </contour>
    <contour>
      <point x="162" y="440" type="line"/>
      <point x="226" y="440"/>
      <point x="257" y="412"/>
      <point x="257" y="365" type="curve" smooth="yes"/>
      <point x="257" y="312"/>
      <point x="217" y="285"/>
      <point x="156" y="285" type="curve" smooth="yes"/>
      <point x="97" y="285" type="line"/>
      <point x="97" y="440" type="line"/>
    </contour>
    <contour>
      <point x="347" y="140" type="curve" smooth="yes"/>
      <point x="347" y="207"/>
      <point x="295" y="249"/>
      <point x="231" y="260" type="curve"/>
      <point x="284" y="275"/>
      <point x="317" y="323"/>
      <point x="317" y="375" type="curve" smooth="yes"/>
      <point x="317" y="438"/>
      <point x="270" y="485"/>
      <point x="190" y="489" type="curve"/>
      <point x="190" y="574" type="line"/>
      <point x="133" y="574" type="line"/>
      <point x="133" y="490" type="line"/>
      <point x="37" y="490" type="line"/>
      <point x="37" y="-0" type="line"/>
      <point x="133" y="-0" type="line"/>
      <point x="133" y="-82" type="line"/>
      <point x="190" y="-82" type="line"/>
      <point x="190" y="-0" type="line"/>
      <point x="282" y="3"/>
      <point x="347" y="61"/>
    </contour>
  </outline>
</glyph>
<glyph name="uni0E41" format="1">
  <advance width="329"/>
  <unicode hex="0E41"/>
  <outline>
    <contour>
      <point x="37" y="430" type="line" name="hr00"/>
      <point x="37" y="70" type="line" smooth="yes"/>
      <point x="37" y="19"/>
      <point x="57" y="-0"/>
      <point x="97" y="-0" type="curve" smooth="yes"/>
      <point x="137" y="-0" type="line"/>
      <point x="137" y="50" type="line"/>
      <point x="107" y="50" type="line"/>
      <point x="96" y="51"/>
      <point x="97" y="59"/>
      <point x="97" y="70" type="curve" smooth="yes"/>
      <point x="97" y="430" type="line"/>
    </contour>
    <contour>
      <point x="207" y="430" type="line"/>
      <point x="207" y="70" type="line" smooth="yes"/>
      <point x="207" y="19"/>
      <point x="227" y="-0"/>
      <point x="267" y="-0" type="curve" smooth="yes"/>
      <point x="307" y="-0" type="line"/>
      <point x="307" y="50" type="line"/>
      <point x="277" y="50" type="line"/>
      <point x="266" y="51"/>
      <point x="267" y="59"/>
      <point x="267" y="70" type="curve" smooth="yes"/>
      <point x="267" y="430" type="line"/>
    </contour>
  </outline>
</glyph>
<glyph name="uni0E42" format="1">
  <advance width="212"/>
  <unicode hex="0E42"/>
  <outline>
    <contour>
      <point x="90" y="406" type="curve" smooth="yes" name="hr00"/>
      <point x="90" y="70" type="line" smooth="yes"/>
      <point x="90" y="19"/>
      <point x="110" y="-0"/>
      <point x="150" y="-0" type="curve" smooth="yes"/>
      <point x="190" y="-0" type="line"/>
      <point x="190" y="50" type="line"/>
      <point x="160" y="50" type="line"/>
      <point x="149" y="51"/>
      <point x="150" y="59"/>
      <point x="150" y="70" type="curve" smooth="yes"/>
      <point x="150" y="406" type="line" smooth="yes"/>
      <point x="150" y="490"/>
      <point x="130" y="525"/>
      <point x="130" y="560" type="curve" smooth="yes"/>
      <point x="130" y="591"/>
      <point x="152" y="600"/>
      <point x="223" y="600" type="curve" smooth="yes"/>
      <point x="300" y="600" type="line"/>
      <point x="300" y="650" type="line"/>
      <point x="209" y="650" type="line" smooth="yes"/>
      <point x="110" y="650"/>
      <point x="70" y="623"/>
      <point x="70" y="563" type="curve" smooth="yes"/>
      <point x="70" y="526"/>
      <point x="90" y="490"/>
    </contour>
  </outline>
</glyph>
<glyph name="uni0E43" format="1">
  <advance width="272"/>
  <unicode hex="0E43"/>
  <outline>
    <contour>
      <point x="210" y="70" type="curve" smooth="yes" name="hr00"/>
      <point x="210" y="381" type="line" smooth="yes"/>
      <point x="210" y="469"/>
      <point x="230" y="471"/>
      <point x="230" y="531" type="curve" smooth="yes"/>
      <point x="230" y="620"/>
      <point x="180" y="660"/>
      <point x="99" y="660" type="curve" smooth="yes"/>
      <point x="60" y="660"/>
      <point x="20" y="645"/>
      <point x="-0" y="610" type="curve"/>
      <point x="20" y="560" type="line"/>
      <point x="36" y="589"/>
      <point x="61" y="610"/>
      <point x="96" y="610" type="curve" smooth="yes"/>
      <point x="140" y="610"/>
      <point x="170" y="591"/>
      <point x="170" y="531" type="curve" smooth="yes"/>
      <point x="170" y="490"/>
      <point x="150" y="460"/>
      <point x="150" y="381" type="curve" smooth="yes"/>
      <point x="150" y="70" type="line" smooth="yes"/>
      <point x="150" y="19"/>
      <point x="170" y="-0"/>
      <point x="210" y="-0" type="curve" smooth="yes"/>
      <point x="250" y="-0" type="line"/>
      <point x="250" y="50" type="line"/>
      <point x="220" y="50" type="line"/>
      <point x="209" y="51"/>
      <point x="210" y="59"/>
    </contour>
  </outline>
</glyph>
<glyph name="uni0E44" format="1">
  <advance width="272"/>
  <unicode hex="0E44"/>
  <outline>
    <contour>
      <point x="210" y="70" type="curve" smooth="yes" name="hr00"/>
      <point x="210" y="510" type="line" smooth="yes"/>
      <point x="210" y="585"/>
      <point x="210" y="650"/>
      <point x="150" y="650" type="curve" smooth="yes"/>
      <point x="121" y="650"/>
      <point x="96" y="634"/>
      <point x="79" y="611" type="curve"/>
      <point x="74" y="616"/>
      <point x="45" y="650"/>
      <point x="-0" y="650" type="curve"/>
      <point x="-0" y="600" type="line"/>
      <point x="34" y="600"/>
      <point x="65" y="576"/>
      <point x="85" y="550" type="curve"/>
      <point x="93" y="568"/>
      <point x="107" y="601"/>
      <point x="129" y="601" type="curve" smooth="yes"/>
      <point x="156" y="601"/>
      <point x="150" y="536"/>
      <point x="150" y="510" type="curve" smooth="yes"/>
      <point x="150" y="70" type="line" smooth="yes"/>
      <point x="150" y="19"/>
      <point x="170" y="-0"/>
      <point x="210" y="-0" type="curve" smooth="yes"/>
      <point x="250" y="-0" type="line"/>
      <point x="250" y="50" type="line"/>
      <point x="220" y="50" type="line"/>
      <point x="209" y="51"/>
      <point x="210" y="59"/>
    </contour>
  </outline>
</glyph>
<glyph name="uni0E45" format="1">
  <advance width="339"/>
  <unicode hex="0E45"/>
  <outline>
    <contour>
      <point x="22" y="400" type="curve" name="hr00"/>
      <point x="22" y="350" type="line"/>
      <point x="29" y="357"/>
      <point x="38" y="364"/>
      <point x="49" y="370" type="curve" smooth="yes"/>
      <point x="66" y="381"/>
      <point x="91" y="390"/>
      <point x="122" y="390" type="curve" smooth="yes"/>
      <point x="185" y="390"/>
      <point x="242" y="354"/>
      <point x="242" y="270" type="curve" smooth="yes"/>
      <point x="242" y="-208" type="line"/>
      <point x="262" y="-208" type="line"/>
      <point x="269" y="-203"/>
      <point x="276" y="-198"/>
      <point x="282" y="-191" type="curve" smooth="yes"/>
      <point x="293" y="-180"/>
      <point x="302" y="-167"/>
      <point x="302" y="-148" type="curve" smooth="yes"/>
      <point x="302" y="280" type="line" smooth="yes"/>
      <point x="302" y="391"/>
      <point x="209" y="440"/>
      <point x="132" y="440" type="curve" smooth="yes"/>
      <point x="91" y="440"/>
      <point x="53" y="427"/>
    </contour>
  </outline>
</glyph>
<glyph name="uni0E46" format="1">
  <advance width="399"/>
  <unicode hex="0E46"/>
  <outline>
    <contour>
      <point x="362" y="-148" type="curve" smooth="yes" name="hr00"/>
      <point x="362" y="320" type="line" smooth="yes"/>
      <point x="362" y="380"/>
      <point x="331" y="440"/>
      <point x="262" y="440" type="curve" smooth="yes"/>
      <point x="238" y="440"/>
      <point x="207" y="407"/>
      <point x="192" y="390" type="curve"/>
      <point x="177" y="407"/>
      <point x="146" y="440"/>
      <point x="122" y="440" type="curve" smooth="yes"/>
      <point x="62" y="440"/>
      <point x="22" y="391"/>
      <point x="22" y="320" type="curve" smooth="yes"/>
      <point x="22" y="269"/>
      <point x="38" y="239"/>
      <point x="57" y="222" type="curve"/>
      <point x="67" y="211"/>
      <point x="79" y="204"/>
      <point x="92" y="200" type="curve"/>
      <point x="112" y="250" type="line"/>
      <point x="106" y="254"/>
      <point x="101" y="259"/>
      <point x="97" y="266" type="curve" smooth="yes"/>
      <point x="89" y="277"/>
      <point x="82" y="295"/>
      <point x="82" y="320" type="curve" smooth="yes"/>
      <point x="82" y="360"/>
      <point x="101" y="390"/>
      <point x="132" y="390" type="curve" smooth="yes"/>
      <point x="143" y="390"/>
      <point x="156" y="375"/>
      <point x="169" y="360" type="curve" smooth="yes"/>
      <point x="176" y="351"/>
      <point x="184" y="341"/>
      <point x="192" y="330" type="curve"/>
      <point x="202" y="346"/>
      <point x="234" y="390"/>
      <point x="252" y="390" type="curve" smooth="yes"/>
      <point x="292" y="390"/>
      <point x="302" y="351"/>
      <point x="302" y="300" type="curve" smooth="yes"/>
      <point x="302" y="-208" type="line"/>
      <point x="322" y="-208" type="line"/>
      <point x="329" y="-203"/>
      <point x="336" y="-198"/>
      <point x="342" y="-191" type="curve" smooth="yes"/>
      <point x="353" y="-180"/>
      <point x="362" y="-167"/>
    </contour>
  </outline>
</glyph>
<glyph name="uni0E47" format="1">
  <advance width="0"/>
  <unicode hex="0E47"/>
  <outline>
    <contour>
      <point x="-158" y="655" type="curve" smooth="yes" name="hr00"/>
      <point x="-238" y="655" type="line" smooth="yes"/>
      <point x="-267" y="655"/>
      <point x="-328" y="645"/>
      <point x="-328" y="575" type="curve" smooth="yes"/>
      <point x="-328" y="519"/>
      <point x="-286" y="505"/>
      <point x="-258" y="505" type="curve" smooth="yes"/>
      <point x="-240" y="505"/>
      <point x="-212" y="511"/>
      <point x="-198" y="525" type="curve"/>
      <point x="-186" y="513"/>
      <point x="-164" y="505"/>
      <point x="-148" y="505" type="curve" smooth="yes"/>
      <point x="-108" y="505"/>
      <point x="-78" y="535"/>
      <point x="-78" y="575" type="curve"/>
      <point x="-128" y="575" type="line"/>
      <point x="-128" y="564"/>
      <point x="-138" y="545"/>
      <point x="-158" y="545" type="curve" smooth="yes"/>
      <point x="-171" y="545"/>
      <point x="-178" y="552"/>
      <point x="-182" y="560" type="curve" smooth="yes"/>
      <point x="-185" y="564"/>
      <point x="-187" y="569"/>
      <point x="-188" y="575" type="curve"/>
      <point x="-207" y="575" type="line"/>
      <point x="-208" y="569"/>
      <point x="-211" y="564"/>
      <point x="-214" y="560" type="curve" smooth="yes"/>
      <point x="-221" y="552"/>
      <point x="-231" y="545"/>
      <point x="-248" y="545" type="curve" smooth="yes"/>
      <point x="-268" y="545"/>
      <point x="-278" y="563"/>
      <point x="-278" y="575" type="curve" smooth="yes"/>
      <point x="-278" y="594"/>
      <point x="-268" y="615"/>
      <point x="-228" y="615" type="curve" smooth="yes"/>
      <point x="-158" y="615" type="line" smooth="yes"/>
      <point x="-134" y="615"/>
      <point x="-98" y="619"/>
      <point x="-78" y="635" type="curve"/>
      <point x="-78" y="685" type="line"/>
      <point x="-97" y="662"/>
      <point x="-129" y="655"/>
    </contour>
  </outline>
</glyph>
<glyph name="uni0E49" format="1">
  <advance width="0"/>
  <unicode hex="0E49"/>
  <outline>
    <contour>
      <point x="0" y="555" type="line" name="hr00"/>
      <point x="-138" y="555" type="line" smooth="yes"/>
      <point x="-149" y="555"/>
      <point x="-158" y="564"/>
      <point x="-158" y="575" type="curve" smooth="yes"/>
      <point x="-158" y="595"/>
      <point x="-178" y="615"/>
      <point x="-198" y="615" type="curve" smooth="yes"/>
      <point x="-268" y="615" type="line"/>
      <point x="-268" y="565" type="line"/>
      <point x="-236" y="565" type="line" smooth="yes"/>
      <point x="-228" y="565"/>
      <point x="-218" y="562"/>
      <point x="-218" y="545" type="curve" smooth="yes"/>
      <point x="-218" y="525"/>
      <point x="-199" y="505"/>
      <point x="-168" y="505" type="curve" smooth="yes"/>
      <point x="-18" y="505" type="line"/>
    </contour>
  </outline>
</glyph>
<glyph name="uni0E4A" format="1">
  <advance width="0"/>
  <unicode hex="0E4A"/>
  <outline>
    <contour>
      <point x="-173" y="595" type="curve" name="hr00"/>
      <point x="-176" y="599"/>
      <point x="-180" y="602"/>
      <point x="-184" y="605" type="curve" smooth="yes"/>
      <point x="-192" y="610"/>
      <point x="-203" y="615"/>
      <point x="-218" y="615" type="curve" smooth="yes"/>
      <point x="-258" y="615"/>
      <point x="-288" y="585"/>
      <point x="-288" y="545" type="curve" smooth="yes"/>
      <point x="-288" y="530"/>
      <point x="-283" y="521"/>
      <point x="-278" y="514" type="curve" smooth="yes"/>
      <point x="-275" y="511"/>
      <point x="-272" y="508"/>
      <point x="-268" y="505" type="curve"/>
      <point x="-208" y="505" type="line"/>
      <point x="-212" y="508"/>
      <point x="-215" y="511"/>
      <point x="-218" y="514" type="curve" smooth="yes"/>
      <point x="-223" y="521"/>
      <point x="-228" y="530"/>
      <point x="-228" y="545" type="curve" smooth="yes"/>
      <point x="-228" y="560"/>
      <point x="-219" y="575"/>
      <point x="-208" y="575" type="curve" smooth="yes"/>
      <point x="-188" y="575"/>
      <point x="-183" y="558"/>
      <point x="-183" y="545" type="curve"/>
      <point x="-163" y="545" type="line"/>
      <point x="-163" y="560"/>
      <point x="-155" y="575"/>
      <point x="-138" y="575" type="curve" smooth="yes"/>
      <point x="-125" y="575"/>
      <point x="-118" y="560"/>
      <point x="-118" y="545" type="curve" smooth="yes"/>
      <point x="-118" y="525"/>
      <point x="-108" y="505"/>
      <point x="-71" y="505" type="curve" smooth="yes"/>
      <point x="-18" y="505" type="line"/>
      <point x="-0" y="555" type="line"/>
      <point x="-57" y="555" type="line" smooth="yes"/>
      <point x="-65" y="555"/>
      <point x="-68" y="555"/>
      <point x="-68" y="565" type="curve" smooth="yes"/>
      <point x="-68" y="590"/>
      <point x="-88" y="615"/>
      <point x="-128" y="615" type="curve" smooth="yes"/>
      <point x="-143" y="615"/>
      <point x="-155" y="610"/>
      <point x="-162" y="605" type="curve" smooth="yes"/>
      <point x="-167" y="602"/>
      <point x="-170" y="599"/>
    </contour>
  </outline>
</glyph>
<glyph name="uni0E4B" format="1">
  <advance width="0"/>
  <unicode hex="0E4B"/>
    <anchor name="_t.uni0E4B_5" x="-37" y="505"/>
    <anchor name="_t.uni0E4B" x="-35" y="504"/>
    <anchor name="_t.uni0E4B_2" x="-39" y="500"/>
  <outline>
    <contour>
      <point x="-95" y="585" type="line" name="hr00"/>
      <point x="-145" y="585" type="line"/>
      <point x="-145" y="535" type="line"/>
      <point x="-95" y="535" type="line"/>
      <point x="-95" y="505" type="line"/>
      <point x="-35" y="505" type="line"/>
      <point x="-35" y="535" type="line"/>
      <point x="13" y="535" type="line"/>
      <point x="13" y="585" type="line"/>
      <point x="-35" y="585" type="line"/>
      <point x="-35" y="615" type="line"/>
      <point x="-95" y="615" type="line"/>
    </contour>
    <contour>
      <point x="-37" y="505" type="move" name="_t.uni0E4B_5"/>
    </contour>
    <contour>
      <point x="-35" y="504" type="move" name="_t.uni0E4B"/>
    </contour>
    <contour>
      <point x="-39" y="500" type="move" name="_t.uni0E4B_2"/>
    </contour>
  </outline>
</glyph>
<glyph name="uni0E53" format="1">
  <advance width="524"/>
  <unicode hex="0E53"/>
  <outline>
    <contour>
      <point x="362" y="320" type="curve" smooth="yes" name="hr00"/>
      <point x="414" y="320"/>
      <point x="442" y="257"/>
      <point x="442" y="182" type="curve" smooth="yes"/>
      <point x="442" y="120"/>
      <point x="426" y="53"/>
      <point x="392" y="-0" type="curve"/>
      <point x="452" y="-0" type="line"/>
      <point x="486" y="53"/>
      <point x="502" y="120"/>
      <point x="502" y="182" type="curve" smooth="yes"/>
      <point x="502" y="309"/>
      <point x="448" y="370"/>
      <point x="372" y="370" type="curve" smooth="yes"/>
      <point x="332" y="370"/>
      <point x="304" y="348"/>
      <point x="287" y="325" type="curve" smooth="yes"/>
      <point x="276" y="312"/>
      <point x="268" y="297"/>
      <point x="262" y="280" type="curve"/>
      <point x="245" y="327"/>
      <point x="204" y="370"/>
      <point x="151" y="370" type="curve" smooth="yes"/>
      <point x="71" y="370"/>
      <point x="22" y="306"/>
      <point x="22" y="182" type="curve" smooth="yes"/>
      <point x="22" y="67"/>
      <point x="99" y="-8"/>
      <point x="182" y="-8" type="curve" smooth="yes"/>
      <point x="193" y="-8"/>
      <point x="204" y="-7"/>
      <point x="211" y="-4" type="curve" smooth="yes"/>
      <point x="215" y="-3"/>
      <point x="219" y="-1"/>
      <point x="222" y="-0" type="curve"/>
      <point x="222" y="50" type="line"/>
      <point x="219" y="48"/>
      <point x="215" y="46"/>
      <point x="211" y="45" type="curve" smooth="yes"/>
      <point x="203" y="42"/>
      <point x="194" y="40"/>
      <point x="183" y="40" type="curve" smooth="yes"/>
      <point x="116" y="40"/>
      <point x="82" y="108"/>
      <point x="82" y="182" type="curve" smooth="yes"/>
      <point x="82" y="278"/>
      <point x="122" y="320"/>
      <point x="162" y="320" type="curve" smooth="yes"/>
      <point x="201" y="320"/>
      <point x="237" y="262"/>
      <point x="237" y="170" type="curve"/>
      <point x="287" y="170" type="line"/>
      <point x="287" y="270"/>
      <point x="323" y="320"/>
    </contour>
  </outline>
</glyph>
<glyph name="uni0E56" format="1">
  <advance width="579"/>
  <unicode hex="0E56"/>
  <outline>
    <contour>
      <point x="187" y="210" type="curve" name="hr00"/>
      <point x="247" y="210" type="line"/>
      <point x="260" y="269"/>
      <point x="297" y="320"/>
      <point x="367" y="320" type="curve" smooth="yes"/>
      <point x="447" y="320"/>
      <point x="497" y="259"/>
      <point x="497" y="190" type="curve" smooth="yes"/>
      <point x="497" y="100"/>
      <point x="436" y="40"/>
      <point x="367" y="40" type="curve" smooth="yes"/>
      <point x="327" y="40"/>
      <point x="276" y="65"/>
      <point x="257" y="110" type="curve"/>
      <point x="197" y="110" type="line"/>
      <point x="224" y="38"/>
      <point x="287" y="-8"/>
      <point x="367" y="-8" type="curve" smooth="yes"/>
      <point x="487" y="-8"/>
      <point x="557" y="81"/>
      <point x="557" y="190" type="curve" smooth="yes"/>
      <point x="557" y="290"/>
      <point x="487" y="370"/>
      <point x="367" y="370" type="curve" smooth="yes"/>
      <point x="308" y="370"/>
      <point x="253" y="345"/>
      <point x="227" y="290" type="curve"/>
      <point x="187" y="423"/>
      <point x="162" y="570"/>
      <point x="28" y="570" type="curve" smooth="yes"/>
      <point x="7" y="570" type="line"/>
      <point x="7" y="520" type="line"/>
      <point x="106" y="520"/>
      <point x="131" y="427"/>
    </contour>
  </outline>
</glyph>
<glyph name="uni0E57" format="1">
  <advance width="679"/>
  <unicode hex="0E57"/>
  <outline>
    <contour>
      <point x="352" y="310" type="curve" smooth="yes" name="hr00"/>
      <point x="404" y="310"/>
      <point x="422" y="258"/>
      <point x="422" y="182" type="curve" smooth="yes"/>
      <point x="422" y="126"/>
      <point x="409" y="80"/>
      <point x="397" y="49" type="curve" smooth="yes"/>
      <point x="390" y="30"/>
      <point x="381" y="14"/>
      <point x="372" y="0" type="curve"/>
      <point x="462" y="0" type="line" smooth="yes"/>
      <point x="521" y="0"/>
      <point x="592" y="41"/>
      <point x="592" y="140" type="curve" smooth="yes"/>
      <point x="592" y="441" type="line" smooth="yes"/>
      <point x="592" y="483"/>
      <point x="602" y="520"/>
      <point x="672" y="520" type="curve"/>
      <point x="672" y="570" type="line"/>
      <point x="658" y="570" type="line" smooth="yes"/>
      <point x="560" y="570"/>
      <point x="532" y="497"/>
      <point x="532" y="438" type="curve" smooth="yes"/>
      <point x="532" y="136" type="line" smooth="yes"/>
      <point x="532" y="77"/>
      <point x="488" y="53"/>
      <point x="457" y="50" type="curve"/>
      <point x="470" y="82"/>
      <point x="482" y="126"/>
      <point x="482" y="182" type="curve" smooth="yes"/>
      <point x="482" y="308"/>
      <point x="422" y="360"/>
      <point x="362" y="360" type="curve" smooth="yes"/>
      <point x="285" y="360"/>
      <point x="252" y="274"/>
      <point x="252" y="270" type="curve"/>
      <point x="249" y="278"/>
      <point x="218" y="360"/>
      <point x="141" y="360" type="curve" smooth="yes"/>
      <point x="82" y="360"/>
      <point x="22" y="305"/>
      <point x="22" y="182" type="curve" smooth="yes"/>
      <point x="22" y="67"/>
      <point x="99" y="-8"/>
      <point x="182" y="-8" type="curve" smooth="yes"/>
      <point x="193" y="-8"/>
      <point x="204" y="-7"/>
      <point x="211" y="-4" type="curve" smooth="yes"/>
      <point x="215" y="-3"/>
      <point x="219" y="-1"/>
      <point x="222" y="0" type="curve"/>
      <point x="222" y="50" type="line"/>
      <point x="219" y="48"/>
      <point x="215" y="46"/>
      <point x="211" y="45" type="curve" smooth="yes"/>
      <point x="203" y="42"/>
      <point x="194" y="40"/>
      <point x="183" y="40" type="curve" smooth="yes"/>
      <point x="116" y="40"/>
      <point x="82" y="108"/>
      <point x="82" y="182" type="curve" smooth="yes"/>
      <point x="82" y="278"/>
      <point x="112" y="310"/>
      <point x="152" y="310" type="curve" smooth="yes"/>
      <point x="190" y="310"/>
      <point x="232" y="259"/>
      <point x="232" y="190" type="curve"/>
      <point x="272" y="190" type="line"/>
      <point x="272" y="270"/>
      <point x="314" y="310"/>
    </contour>
  </outline>
</glyph>
<glyph name="uni0E58" format="1">
  <advance width="509"/>
  <unicode hex="0E58"/>
  <outline>
    <contour>
      <point x="412" y="140" type="line" name="hr00"/>
      <point x="412" y="114" type="line" smooth="yes"/>
      <point x="412" y="56"/>
      <point x="370" y="40"/>
      <point x="337" y="40" type="curve" smooth="yes"/>
      <point x="301" y="40"/>
      <point x="274" y="56"/>
      <point x="257" y="75" type="curve" smooth="yes"/>
      <point x="247" y="85"/>
      <point x="239" y="97"/>
      <point x="232" y="110" type="curve"/>
      <point x="227" y="97"/>
      <point x="222" y="85"/>
      <point x="215" y="75" type="curve" smooth="yes"/>
      <point x="204" y="56"/>
      <point x="187" y="40"/>
      <point x="163" y="40" type="curve" smooth="yes"/>
      <point x="109" y="40"/>
      <point x="82" y="105"/>
      <point x="82" y="179" type="curve" smooth="yes"/>
      <point x="82" y="240"/>
      <point x="121" y="310"/>
      <point x="191" y="310" type="curve" smooth="yes"/>
      <point x="345" y="310" type="line" smooth="yes"/>
      <point x="414" y="310"/>
      <point x="472" y="342"/>
      <point x="472" y="441" type="curve" smooth="yes"/>
      <point x="472" y="570" type="line"/>
      <point x="412" y="570" type="line"/>
      <point x="412" y="438" type="line" smooth="yes"/>
      <point x="412" y="371"/>
      <point x="373" y="360"/>
      <point x="331" y="360" type="curve" smooth="yes"/>
      <point x="191" y="360" type="line" smooth="yes"/>
      <point x="79" y="360"/>
      <point x="22" y="270"/>
      <point x="22" y="182" type="curve" smooth="yes"/>
      <point x="22" y="57"/>
      <point x="93" y="-8"/>
      <point x="152" y="-8" type="curve" smooth="yes"/>
      <point x="183" y="-8"/>
      <point x="201" y="4"/>
      <point x="214" y="16" type="curve" smooth="yes"/>
      <point x="221" y="23"/>
      <point x="227" y="31"/>
      <point x="232" y="40" type="curve"/>
      <point x="239" y="31"/>
      <point x="247" y="23"/>
      <point x="257" y="16" type="curve" smooth="yes"/>
      <point x="274" y="4"/>
      <point x="300" y="-8"/>
      <point x="337" y="-8" type="curve" smooth="yes"/>
      <point x="415" y="-8"/>
      <point x="472" y="29"/>
      <point x="472" y="114" type="curve" smooth="yes"/>
      <point x="472" y="140" type="line"/>
    </contour>
  </outline>
</glyph>
<glyph name="uni0E59" format="1">
  <advance width="619"/>
  <unicode hex="0E59"/>
  <outline>
    <contour>
      <point x="522" y="570" type="line" name="hr00"/>
      <point x="522" y="448" type="line" smooth="yes"/>
      <point x="522" y="379"/>
      <point x="508" y="329"/>
      <point x="477" y="329" type="curve" smooth="yes"/>
      <point x="435" y="329"/>
      <point x="401" y="400"/>
      <point x="342" y="400" type="curve" smooth="yes"/>
      <point x="302" y="400"/>
      <point x="272" y="372"/>
      <point x="257" y="325" type="curve"/>
      <point x="234" y="348"/>
      <point x="210" y="370"/>
      <point x="163" y="370" type="curve" smooth="yes"/>
      <point x="102" y="370"/>
      <point x="22" y="305"/>
      <point x="22" y="182" type="curve" smooth="yes"/>
      <point x="22" y="67"/>
      <point x="97" y="-8"/>
      <point x="177" y="-8" type="curve" smooth="yes"/>
      <point x="188" y="-8"/>
      <point x="196" y="-7"/>
      <point x="203" y="-4" type="curve" smooth="yes"/>
      <point x="206" y="-3"/>
      <point x="209" y="-1"/>
      <point x="212" y="-0" type="curve"/>
      <point x="212" y="50" type="line"/>
      <point x="209" y="48"/>
      <point x="206" y="46"/>
      <point x="203" y="45" type="curve" smooth="yes"/>
      <point x="196" y="42"/>
      <point x="188" y="40"/>
      <point x="177" y="40" type="curve" smooth="yes"/>
      <point x="110" y="40"/>
      <point x="82" y="109"/>
      <point x="82" y="182" type="curve" smooth="yes"/>
      <point x="82" y="278"/>
      <point x="129" y="322"/>
      <point x="163" y="322" type="curve" smooth="yes"/>
      <point x="212" y="322"/>
      <point x="235" y="278"/>
      <point x="243" y="250" type="curve" smooth="yes"/>
      <point x="313" y="-0" type="line"/>
      <point x="369" y="-0" type="line"/>
      <point x="332" y="133"/>
      <point x="315" y="198"/>
      <point x="304" y="232" type="curve"/>
      <point x="288" y="287" type="line" smooth="yes"/>
      <point x="287" y="289"/>
      <point x="287" y="292"/>
      <point x="287" y="297" type="curve" smooth="yes"/>
      <point x="287" y="321"/>
      <point x="307" y="350"/>
      <point x="342" y="350" type="curve" smooth="yes"/>
      <point x="382" y="350"/>
      <point x="404" y="280"/>
      <point x="482" y="280" type="curve" smooth="yes"/>
      <point x="560" y="280"/>
      <point x="582" y="365"/>
      <point x="582" y="448" type="curve" smooth="yes"/>
      <point x="582" y="570" type="line"/>
    </contour>
  </outline>
</glyph>
<glyph name="uni0E5A" format="1">
  <advance width="509"/>
  <unicode hex="0E5A"/>
  <outline>
    <contour>
      <point x="472" y="-0" type="line" name="hr00"/>
      <point x="472" y="430" type="line"/>
      <point x="412" y="430" type="line"/>
      <point x="412" y="-0" type="line"/>
    </contour>
    <contour>
      <point x="82" y="430" type="curve"/>
      <point x="22" y="430" type="line"/>
      <point x="37" y="342"/>
      <point x="88" y="290"/>
      <point x="172" y="290" type="curve" smooth="yes"/>
      <point x="223" y="290"/>
      <point x="266" y="318"/>
      <point x="292" y="360" type="curve"/>
      <point x="292" y="150" type="line" smooth="yes"/>
      <point x="292" y="52"/>
      <point x="281" y="50"/>
      <point x="253" y="50" type="curve"/>
      <point x="253" y="-0" type="line"/>
      <point x="337" y="-0"/>
      <point x="352" y="52"/>
      <point x="352" y="147" type="curve" smooth="yes"/>
      <point x="352" y="430" type="line"/>
      <point x="292" y="430" type="line"/>
      <point x="277" y="371"/>
      <point x="228" y="340"/>
      <point x="172" y="340" type="curve" smooth="yes"/>
      <point x="116" y="340"/>
      <point x="97" y="374"/>
    </contour>
  </outline>
</glyph>
<glyph name="uni0E5B" format="1">
  <advance width="714"/>
  <unicode hex="0E5B"/>
  <outline>
    <contour>
      <point x="220" y="-8" type="curve" smooth="yes" name="hr00"/>
      <point x="259" y="-8"/>
      <point x="299" y="11"/>
      <point x="325" y="40" type="curve"/>
      <point x="377" y="-8" type="line"/>
      <point x="416" y="40" type="line"/>
      <point x="462" y="-8" type="line"/>
      <point x="503" y="40" type="line"/>
      <point x="523" y="14"/>
      <point x="553" y="-8"/>
      <point x="587" y="-8" type="curve" smooth="yes"/>
      <point x="667" y="-8"/>
      <point x="677" y="55"/>
      <point x="677" y="77" type="curve" smooth="yes"/>
      <point x="677" y="94"/>
      <point x="672" y="115"/>
      <point x="657" y="126" type="curve"/>
      <point x="597" y="126" type="line"/>
      <point x="610" y="116"/>
      <point x="617" y="93"/>
      <point x="617" y="77" type="curve" smooth="yes"/>
      <point x="617" y="65"/>
      <point x="608" y="40"/>
      <point x="573" y="40" type="curve" smooth="yes"/>
      <point x="545" y="40"/>
      <point x="519" y="69"/>
      <point x="503" y="90" type="curve"/>
      <point x="462" y="40" type="line"/>
      <point x="416" y="90" type="line"/>
      <point x="377" y="40" type="line"/>
      <point x="325" y="90" type="line"/>
      <point x="301" y="59"/>
      <point x="259" y="40"/>
      <point x="220" y="40" type="curve"/>
      <point x="147" y="41"/>
      <point x="97" y="98"/>
      <point x="97" y="174" type="curve" smooth="yes"/>
      <point x="97" y="254"/>
      <point x="147" y="320"/>
      <point x="216" y="320" type="curve" smooth="yes"/>
      <point x="271" y="320"/>
      <point x="310" y="288"/>
      <point x="323" y="236" type="curve"/>
      <point x="381" y="236" type="line"/>
      <point x="364" y="321"/>
      <point x="306" y="370"/>
      <point x="216" y="370" type="curve" smooth="yes"/>
      <point x="107" y="370"/>
      <point x="37" y="281"/>
      <point x="37" y="174" type="curve" smooth="yes"/>
      <point x="37" y="75"/>
      <point x="117" y="-8"/>
    </contour>
  </outline>
</glyph>
<glyph name="emdash" format="1">
  <advance width="564"/>
  <unicode hex="2014"/>
  <outline>
    <contour>
      <point x="527" y="190" type="line" name="hr00"/>
      <point x="527" y="240" type="line"/>
      <point x="37" y="240" type="line"/>
      <point x="37" y="190" type="line"/>
    </contour>
  </outline>
</glyph>
<glyph name="quoteleft" format="1">
  <advance width="134"/>
  <unicode hex="2018"/>
  <outline>
    <contour>
      <point x="97" y="360" type="line" name="hr00"/>
      <point x="97" y="420" type="line" smooth="yes"/>
      <point x="97" y="459"/>
      <point x="131" y="502"/>
      <point x="157" y="530" type="curve"/>
      <point x="107" y="530" type="line"/>
      <point x="94" y="520"/>
      <point x="82" y="509"/>
      <point x="72" y="497" type="curve" smooth="yes"/>
      <point x="53" y="477"/>
      <point x="37" y="451"/>
      <point x="37" y="420" type="curve" smooth="yes"/>
      <point x="37" y="360" type="line"/>
    </contour>
  </outline>
</glyph>
<glyph name="quoteright" format="1">
  <advance width="134"/>
  <unicode hex="2019"/>
  <outline>
    <contour>
      <point x="37" y="530" type="line" name="hr00"/>
      <point x="37" y="470" type="line" smooth="yes"/>
      <point x="37" y="431"/>
      <point x="5" y="388"/>
      <point x="-21" y="360" type="curve"/>
      <point x="27" y="360" type="line"/>
      <point x="60" y="383"/>
      <point x="97" y="428"/>
      <point x="97" y="470" type="curve" smooth="yes"/>
      <point x="97" y="530" type="line"/>
    </contour>
  </outline>
</glyph>
<glyph name="quotedblleft" format="1">
  <advance width="244"/>
  <unicode hex="201C"/>
  <outline>
    <contour>
      <point x="97" y="360" type="line" name="hr00"/>
      <point x="97" y="420" type="line" smooth="yes"/>
      <point x="97" y="459"/>
      <point x="131" y="502"/>
      <point x="157" y="530" type="curve"/>
      <point x="107" y="530" type="line"/>
      <point x="94" y="520"/>
      <point x="82" y="509"/>
      <point x="72" y="497" type="curve" smooth="yes"/>
      <point x="53" y="477"/>
      <point x="37" y="451"/>
      <point x="37" y="420" type="curve" smooth="yes"/>
      <point x="37" y="360" type="line"/>
    </contour>
    <contour>
      <point x="207" y="360" type="line"/>
      <point x="207" y="420" type="line" smooth="yes"/>
      <point x="207" y="459"/>
      <point x="241" y="502"/>
      <point x="267" y="530" type="curve"/>
      <point x="217" y="530" type="line"/>
      <point x="204" y="520"/>
      <point x="192" y="509"/>
      <point x="182" y="497" type="curve" smooth="yes"/>
      <point x="163" y="477"/>
      <point x="147" y="451"/>
      <point x="147" y="420" type="curve" smooth="yes"/>
      <point x="147" y="360" type="line"/>
    </contour>
  </outline>
</glyph>
<glyph name="quotedblright" format="1">
  <advance width="244"/>
  <unicode hex="201D"/>
  <outline>
    <contour>
      <point x="147" y="530" type="line" name="hr00"/>
      <point x="147" y="470" type="line" smooth="yes"/>
      <point x="147" y="431"/>
      <point x="113" y="388"/>
      <point x="87" y="360" type="curve"/>
      <point x="137" y="360" type="line"/>
      <point x="170" y="383"/>
      <point x="207" y="428"/>
      <point x="207" y="470" type="curve" smooth="yes"/>
      <point x="207" y="530" type="line"/>
    </contour>
    <contour>
      <point x="37" y="530" type="line"/>
      <point x="37" y="470" type="line" smooth="yes"/>
      <point x="37" y="431"/>
      <point x="5" y="388"/>
      <point x="-21" y="360" type="curve"/>
      <point x="27" y="360" type="line"/>
      <point x="60" y="383"/>
      <point x="97" y="428"/>
      <point x="97" y="470" type="curve" smooth="yes"/>
      <point x="97" y="530" type="line"/>
    </contour>
  </outline>
</glyph>
<glyph name="ellipsis" format="1">
  <advance width="554"/>
  <unicode hex="2026"/>
  <outline>
    <contour>
      <point x="97" y="-0" type="line" name="hr00"/>
      <point x="97" y="60" type="line"/>
      <point x="37" y="60" type="line"/>
      <point x="37" y="-0" type="line"/>
    </contour>
    <contour>
      <point x="307" y="-0" type="line"/>
      <point x="307" y="60" type="line"/>
      <point x="247" y="60" type="line"/>
      <point x="247" y="-0" type="line"/>
    </contour>
    <contour>
      <point x="517" y="-0" type="line"/>
      <point x="517" y="60" type="line"/>
      <point x="457" y="60" type="line"/>
      <point x="457" y="-0" type="line"/>
    </contour>
  </outline>
</glyph>
<glyph name=".notdef" format="1">
  <advance width="344"/>
  <outline>
    <contour>
      <point x="307" y="0" type="line" name="hr00"/>
      <point x="307" y="350" type="line"/>
      <point x="37" y="350" type="line"/>
      <point x="37" y="0" type="line"/>
    </contour>
  </outline>
</glyph>
<glyph name="uni0E10.alt" format="1">
  <advance width="414"/>
    <anchor name="b.uni0E38_2" x="268" y="-75"/>
  <outline>
    <contour>
      <point x="152" y="-0" type="line" name="hr00"/>
      <point x="202" y="-0" type="line" smooth="yes"/>
      <point x="322" y="-0"/>
      <point x="392" y="100"/>
      <point x="392" y="225" type="curve" smooth="yes"/>
      <point x="392" y="296"/>
      <point x="362" y="360"/>
      <point x="309" y="400" type="curve"/>
      <point x="345" y="410"/>
      <point x="392" y="437"/>
      <point x="392" y="490" type="curve"/>
      <point x="332" y="490" type="line"/>
      <point x="332" y="454"/>
      <point x="290" y="434"/>
      <point x="262" y="426" type="curve"/>
      <point x="237" y="435"/>
      <point x="211" y="440"/>
      <point x="182" y="440" type="curve" smooth="yes"/>
      <point x="116" y="440"/>
      <point x="49" y="414"/>
      <point x="22" y="350" type="curve"/>
      <point x="42" y="300" type="line"/>
      <point x="68" y="354"/>
      <point x="121" y="390"/>
      <point x="182" y="390" type="curve" smooth="yes"/>
      <point x="252" y="390"/>
      <point x="332" y="340"/>
      <point x="332" y="225" type="curve" smooth="yes"/>
      <point x="332" y="140"/>
      <point x="290" y="50"/>
      <point x="202" y="50" type="curve"/>
      <point x="162" y="190" type="line"/>
      <point x="154" y="210"/>
      <point x="143" y="220"/>
      <point x="112" y="220" type="curve" smooth="yes"/>
      <point x="72" y="220" type="line"/>
      <point x="72" y="170" type="line"/>
      <point x="92" y="170" type="line"/>
      <point x="94" y="170"/>
      <point x="95" y="170"/>
      <point x="97" y="170" type="curve"/>
      <point x="105" y="170"/>
      <point x="109" y="169"/>
      <point x="112" y="160" type="curve"/>
    </contour>
    <contour>
      <point x="268" y="-75" type="move" name="b.uni0E38_2"/>
    </contour>
  </outline>
</glyph>
<glyph name="uni0E47.sm" format="1">
  <advance width="0"/>
    <anchor name="_t.uni0E47.sm_3" x="-130" y="505"/>
  <outline>
    <contour>
      <point x="-208" y="655" type="curve" smooth="yes" name="hr00"/>
      <point x="-268" y="655" type="line" smooth="yes"/>
      <point x="-297" y="655"/>
      <point x="-358" y="645"/>
      <point x="-358" y="575" type="curve" smooth="yes"/>
      <point x="-358" y="519"/>
      <point x="-319" y="505"/>
      <point x="-298" y="505" type="curve" smooth="yes"/>
      <point x="-278" y="505"/>
      <point x="-266" y="510"/>
      <point x="-258" y="515" type="curve" smooth="yes"/>
      <point x="-254" y="518"/>
      <point x="-251" y="521"/>
      <point x="-248" y="525" type="curve"/>
      <point x="-236" y="513"/>
      <point x="-214" y="505"/>
      <point x="-198" y="505" type="curve" smooth="yes"/>
      <point x="-158" y="505"/>
      <point x="-128" y="535"/>
      <point x="-128" y="575" type="curve"/>
      <point x="-178" y="575" type="line"/>
      <point x="-178" y="564"/>
      <point x="-188" y="545"/>
      <point x="-208" y="545" type="curve" smooth="yes"/>
      <point x="-221" y="545"/>
      <point x="-228" y="552"/>
      <point x="-232" y="560" type="curve" smooth="yes"/>
      <point x="-235" y="564"/>
      <point x="-237" y="569"/>
      <point x="-238" y="575" type="curve"/>
      <point x="-257" y="575" type="line"/>
      <point x="-257" y="569"/>
      <point x="-258" y="564"/>
      <point x="-261" y="560" type="curve" smooth="yes"/>
      <point x="-265" y="552"/>
      <point x="-273" y="545"/>
      <point x="-288" y="545" type="curve" smooth="yes"/>
      <point x="-303" y="545"/>
      <point x="-308" y="563"/>
      <point x="-308" y="575" type="curve" smooth="yes"/>
      <point x="-308" y="594"/>
      <point x="-298" y="615"/>
      <point x="-258" y="615" type="curve" smooth="yes"/>
      <point x="-208" y="615" type="line" smooth="yes"/>
      <point x="-184" y="615"/>
      <point x="-148" y="619"/>
      <point x="-128" y="635" type="curve"/>
      <point x="-128" y="685" type="line"/>
      <point x="-147" y="662"/>
      <point x="-179" y="655"/>
    </contour>
    <contour>
      <point x="-130" y="505" type="move" name="_t.uni0E47.sm_3"/>
    </contour>
  </outline>
</glyph>
<glyph name="uni0E49.sm" format="1">
  <advance width="0"/>
    <anchor name="_t.uni0E4B_5" x="-93" y="660"/>
    <anchor name="_t.uni0E4B" x="-59" y="660"/>
    <anchor name="_t.uni0E4B_2" x="-63" y="660"/>
  <outline>
    <contour>
      <point x="20" y="710" type="line" name="hr00"/>
      <point x="-68" y="710" type="line" smooth="yes"/>
      <point x="-79" y="710"/>
      <point x="-88" y="719"/>
      <point x="-88" y="730" type="curve" smooth="yes"/>
      <point x="-88" y="750"/>
      <point x="-108" y="770"/>
      <point x="-128" y="770" type="curve" smooth="yes"/>
      <point x="-198" y="770" type="line"/>
      <point x="-198" y="720" type="line"/>
      <point x="-166" y="720" type="line" smooth="yes"/>
      <point x="-158" y="720"/>
      <point x="-148" y="717"/>
      <point x="-148" y="700" type="curve" smooth="yes"/>
      <point x="-148" y="680"/>
      <point x="-129" y="660"/>
      <point x="-98" y="660" type="curve" smooth="yes"/>
      <point x="-0" y="660" type="line"/>
    </contour>
    <contour>
      <point x="-93" y="660" type="move" name="_t.uni0E4B_5"/>
    </contour>
    <contour>
      <point x="-59" y="660" type="move" name="_t.uni0E4B"/>
    </contour>
    <contour>
      <point x="-63" y="660" type="move" name="_t.uni0E4B_2"/>
    </contour>
  </outline>
</glyph>
<glyph name="uni0E4A.sm" format="1">
  <advance width="0"/>
    <anchor name="_t.uni0E4B_5" x="-77" y="660"/>
    <anchor name="_t.uni0E4B" x="-59" y="660"/>
    <anchor name="_t.uni0E4B_2" x="-100" y="660"/>
  <outline>
    <contour>
      <point x="-133" y="750" type="curve" name="hr00"/>
      <point x="-137" y="765"/>
      <point x="-155" y="770"/>
      <point x="-168" y="770" type="curve" smooth="yes"/>
      <point x="-208" y="770"/>
      <point x="-238" y="740"/>
      <point x="-238" y="700" type="curve" smooth="yes"/>
      <point x="-238" y="685"/>
      <point x="-233" y="676"/>
      <point x="-228" y="669" type="curve" smooth="yes"/>
      <point x="-225" y="666"/>
      <point x="-222" y="663"/>
      <point x="-218" y="660" type="curve"/>
      <point x="-158" y="660" type="line"/>
      <point x="-162" y="663"/>
      <point x="-165" y="666"/>
      <point x="-168" y="669" type="curve" smooth="yes"/>
      <point x="-173" y="676"/>
      <point x="-178" y="685"/>
      <point x="-178" y="700" type="curve" smooth="yes"/>
      <point x="-178" y="715"/>
      <point x="-169" y="730"/>
      <point x="-158" y="730" type="curve" smooth="yes"/>
      <point x="-147" y="730"/>
      <point x="-143" y="713"/>
      <point x="-143" y="700" type="curve"/>
      <point x="-123" y="700" type="line"/>
      <point x="-123" y="715"/>
      <point x="-119" y="730"/>
      <point x="-108" y="730" type="curve" smooth="yes"/>
      <point x="-95" y="730"/>
      <point x="-88" y="715"/>
      <point x="-88" y="700" type="curve" smooth="yes"/>
      <point x="-88" y="680"/>
      <point x="-78" y="660"/>
      <point x="-41" y="660" type="curve" smooth="yes"/>
      <point x="-0" y="660" type="line"/>
      <point x="20" y="710" type="line"/>
      <point x="-27" y="710" type="line" smooth="yes"/>
      <point x="-35" y="710"/>
      <point x="-38" y="710"/>
      <point x="-38" y="720" type="curve" smooth="yes"/>
      <point x="-38" y="745"/>
      <point x="-58" y="770"/>
      <point x="-98" y="770" type="curve" smooth="yes"/>
      <point x="-111" y="770"/>
      <point x="-129" y="765"/>
    </contour>
    <contour>
      <point x="-77" y="660" type="move" name="_t.uni0E4B_5"/>
    </contour>
    <contour>
      <point x="-59" y="660" type="move" name="_t.uni0E4B"/>
    </contour>
    <contour>
      <point x="-100" y="660" type="move" name="_t.uni0E4B_2"/>
    </contour>
  </outline>
</glyph>
